<?xml version="1.0" encoding="UTF-8"?>
<svg version="1.1" xmlns="http://www.w3.org/2000/svg" width="128" height="128">
<path d="M0 0 C3.87199629 0.31225777 5.59118619 1.19592319 8.80078125 3.22265625 C16.56436159 7.30182558 26.43888394 8.87776299 34.88671875 6.4453125 C36.92895312 5.75703179 38.96158886 5.03919573 40.98046875 4.28515625 C53.90819244 -0.05897762 70.47229562 0.80223461 82.875 6.3125 C83.72449219 6.85648437 84.57398437 7.40046875 85.44921875 7.9609375 C88.15144149 9.46652376 89.24576537 9.58593853 92.25 9.125 C93.01957031 9.00898438 93.78914063 8.89296875 94.58203125 8.7734375 C97.7556286 8.13547415 100.79107645 7.29673092 103.875 6.3125 C103.38 5.3225 103.38 5.3225 102.875 4.3125 C104.2671875 4.4053125 104.2671875 4.4053125 105.6875 4.5 C108.84576037 4.6131649 108.84576037 4.6131649 110.75 2.875 C111.97238412 1.49813848 111.97238412 1.49813848 111.875 0.3125 C114.515 0.3125 117.155 0.3125 119.875 0.3125 C123.11701565 6.39127934 123.20778764 11.49651613 122.875 18.3125 C122.215 18.6425 121.555 18.9725 120.875 19.3125 C120.875 22.6125 120.875 25.9125 120.875 29.3125 C120.215 29.3125 119.555 29.3125 118.875 29.3125 C118.35099609 30.90191406 118.35099609 30.90191406 117.81640625 32.5234375 C117.35685012 33.91148459 116.89721036 35.29950399 116.4375 36.6875 C116.20740234 37.38617188 115.97730469 38.08484375 115.74023438 38.8046875 C113.98828125 44.0859375 113.98828125 44.0859375 112.875 46.3125 C112.545 46.3125 112.215 46.3125 111.875 46.3125 C111.80152344 48.19582031 111.80152344 48.19582031 111.7265625 50.1171875 C111.05553446 65.65801058 111.05553446 65.65801058 109.34765625 72.84375 C108.50912116 77.2235366 108.36506174 81.66708911 108.12109375 86.11328125 C107.90385469 88.93738906 107.43607022 91.5439404 106.875 94.3125 C106.81233488 95.74878457 106.78813653 97.1875555 106.8125 98.625 C106.833125 99.841875 106.85375 101.05875 106.875 102.3125 C106.215 102.3125 105.555 102.3125 104.875 102.3125 C104.875 109.2425 104.875 116.1725 104.875 123.3125 C103.885 123.8075 103.885 123.8075 102.875 124.3125 C102.22286708 126.33713255 102.22286708 126.33713255 101.875 128.3125 C90.71380903 128.33564696 79.55262375 128.35342714 68.39141369 128.36431217 C63.20909466 128.36953583 58.02679202 128.37662414 52.84448242 128.38793945 C47.84541474 128.39878664 42.84636285 128.40478074 37.84728432 128.40737724 C35.93786686 128.40922818 34.02845029 128.41284246 32.11903954 128.41823006 C29.44937634 128.42546474 26.77977881 128.42648991 24.11010742 128.42602539 C23.31672974 128.42962067 22.52335205 128.43321594 21.70593262 128.43692017 C18.49478752 128.43085448 15.94427254 128.33559085 12.875 127.3125 C12.89820312 126.27609375 12.92140625 125.2396875 12.9453125 124.171875 C12.96407667 122.80209056 12.98227618 121.4322983 13 120.0625 C13.01675781 119.38058594 13.03351562 118.69867188 13.05078125 117.99609375 C13.0884902 114.11207177 12.65298806 111.70178973 10.875 108.3125 C10.6796875 105.296875 10.6796875 105.296875 10.75 102.0625 C10.76804687 100.98484375 10.78609375 99.9071875 10.8046875 98.796875 C10.82789063 97.97703125 10.85109375 97.1571875 10.875 96.3125 C10.215 96.3125 9.555 96.3125 8.875 96.3125 C8.875 94.6625 8.875 93.0125 8.875 91.3125 C8.215 90.9825 7.555 90.6525 6.875 90.3125 C6.88023682 89.73806152 6.88547363 89.16362305 6.89086914 88.57177734 C6.91178576 85.94369623 6.92470659 83.31563271 6.9375 80.6875 C6.94587891 79.78386719 6.95425781 78.88023438 6.96289062 77.94921875 C6.97991895 73.28345711 6.84329423 68.90236715 5.875 64.3125 C5.215 64.3125 4.555 64.3125 3.875 64.3125 C3.89820313 63.03632812 3.92140625 61.76015625 3.9453125 60.4453125 C3.96406829 58.7760475 3.98226869 57.1067762 4 55.4375 C4.01675781 54.59574219 4.03351562 53.75398438 4.05078125 52.88671875 C4.06044922 51.67822266 4.06044922 51.67822266 4.0703125 50.4453125 C4.08602295 49.32987061 4.08602295 49.32987061 4.10205078 48.19189453 C4.0415597 46.06759765 4.0415597 46.06759765 1.875 44.3125 C-0.88132926 36.04351223 -2.24125746 26.97317692 -3.125 18.3125 C-3.785 18.3125 -4.445 18.3125 -5.125 18.3125 C-5.24522642 12.54163206 -5.04196124 7.01803659 -4.125 1.3125 C-3.125 0.3125 -3.125 0.3125 0 0 Z M118.875 22.3125 C119.875 24.3125 119.875 24.3125 119.875 24.3125 Z M7.875 74.3125 C8.875 76.3125 8.875 76.3125 8.875 76.3125 Z M106.875 77.3125 C107.875 79.3125 107.875 79.3125 107.875 79.3125 Z M11.875 100.3125 C11.875 101.9625 11.875 103.6125 11.875 105.3125 C12.205 105.3125 12.535 105.3125 12.875 105.3125 C12.875 103.6625 12.875 102.0125 12.875 100.3125 C12.545 100.3125 12.215 100.3125 11.875 100.3125 Z M102.875 109.3125 C102.875 111.2925 102.875 113.2725 102.875 115.3125 C103.205 115.3125 103.535 115.3125 103.875 115.3125 C103.875 113.3325 103.875 111.3525 103.875 109.3125 C103.545 109.3125 103.215 109.3125 102.875 109.3125 Z " fill="#254448" transform="translate(5.125,-0.3125)"/>
<path d="M0 0 C0.33 0 0.66 0 1 0 C1.495 5.445 1.495 5.445 2 11 C3.36125 11.103125 4.7225 11.20625 6.125 11.3125 C10.3186217 11.77918831 13.33299713 12.83313467 17 15 C17.94875 15.4125 18.8975 15.825 19.875 16.25 C20.57625 16.8275 21.2775 17.405 22 18 C22.3125 21.6875 22.3125 21.6875 22 25 C20.5459375 24.01 20.5459375 24.01 19.0625 23 C14.73661779 20.53932611 10.88079571 20.23074415 6 21 C2.54653852 22.34746524 2.54653852 22.34746524 0 24 C0 24.33 0 24.66 0 25 C0.639375 24.67 1.27875 24.34 1.9375 24 C6.04638958 22.65832177 9.71749027 22.38599225 14 23 C17.74243985 24.9906595 18.75087192 26.39982781 20.375 30.3125 C21.58072088 37.42625318 19.35955243 43.38299427 17 50 C16.67 50.99 16.34 51.98 16 53 C17.98 52.67 19.96 52.34 22 52 C22 52.66 22 53.32 22 54 C25.23973183 53.29154463 25.23973183 53.29154463 26.5625 50.25 C27.77051334 47.51883941 28.93355431 44.78916564 30 42 C29.01 42 28.02 42 27 42 C27 41.01 27 40.02 27 39 C28.32 39 29.64 39 31 39 C32.93290177 42.86580353 32.79717525 46.81482993 32 51 C28.44676754 57.54588213 23.59161489 64.18602868 16.46875 67 C13.51396764 68.19687387 11.79504589 69.80192788 9.5 72 C6.46575959 74.90603307 3.995579 76.64938175 0 78 C-0.33 80.97 -0.66 83.94 -1 87 C-0.01 87 0.98 87 2 87 C3.6875 88.375 3.6875 88.375 5 90 C5 90.66 5 91.32 5 92 C-8.86 92 -22.72 92 -37 92 C-37 91.34 -37 90.68 -37 90 C-36.38125 89.87625 -35.7625 89.7525 -35.125 89.625 C-32.80879168 89.12802644 -32.80879168 89.12802644 -31 87 C-30.35232207 84.42938689 -30.35232207 84.42938689 -30 82 C-33.04913228 80.98888907 -33.04913228 80.98888907 -36 82 C-36 80.68 -36 79.36 -36 78 C-37.57215094 74.68101469 -39.58347468 72.34265226 -42.1875 69.8125 C-43.115625 68.884375 -44.04375 67.95625 -45 67 C-45 66.34 -45 65.68 -45 65 C-46.04414062 65.12117188 -47.08828125 65.24234375 -48.1640625 65.3671875 C-52 65 -52 65 -54.8359375 62.4453125 C-55.70406447 61.35553609 -56.55016799 60.24790214 -57.375 59.125 C-58.03048828 58.29162109 -58.03048828 58.29162109 -58.69921875 57.44140625 C-61.68120601 53.61006039 -63.14785081 51.39177191 -63.1875 46.5625 C-63.20167969 45.78003906 -63.21585938 44.99757812 -63.23046875 44.19140625 C-63 42 -63 42 -61 39 C-59.68 39.66 -58.36 40.32 -57 41 C-57 43.31 -57 45.62 -57 48 C-56.34 48.226875 -55.68 48.45375 -55 48.6875 C-51.07265467 50.40571358 -47.58739822 52.66774607 -44 55 C-44.34933594 54.24976563 -44.69867188 53.49953125 -45.05859375 52.7265625 C-48.51320508 44.95613362 -50.95227024 38.14225929 -49.375 29.625 C-47.41019847 25.87401526 -44.74754334 23.87377167 -41 22 C-45.36384478 22 -45.81422819 22.45138255 -49 25 C-49.66 25 -50.32 25 -51 25 C-51.375 21.75 -51.375 21.75 -51 18 C-43.36497724 10.36497724 -29.31135025 8.98553424 -19 8.9375 C-17.66659713 8.95326659 -16.33320679 8.97222486 -15 9 C-15 6.36 -15 3.72 -15 1 C-14.34 1 -13.68 1 -13 1 C-12.34 3.31 -11.68 5.62 -11 8 C-7.37 8.66 -3.74 9.32 0 10 C0 6.7 0 3.4 0 0 Z " fill="#F5D0BC" transform="translate(79,36)"/>
<path d="M0 0 C3.87199629 0.31225777 5.59118619 1.19592319 8.80078125 3.22265625 C16.56436159 7.30182558 26.43888394 8.87776299 34.88671875 6.4453125 C36.92895312 5.75703179 38.96158886 5.03919573 40.98046875 4.28515625 C52.46204412 0.42697505 68.75738186 0.39734251 79.875 5.3125 C76.88019083 6.1848412 74.23924089 6.42079766 71.125 6.375 C70.32578125 6.36597656 69.5265625 6.35695313 68.703125 6.34765625 C68.09984375 6.33605469 67.4965625 6.32445312 66.875 6.3125 C66.875 5.9825 66.875 5.6525 66.875 5.3125 C50.9534891 4.60337419 36.4355353 4.20695088 23.7265625 15.15234375 C20.35336839 17.2659274 16.70099915 16.79074989 12.875 16.3125 C12.50947197 17.72627782 12.15804505 19.14370576 11.8125 20.5625 C11.61527344 21.35140625 11.41804688 22.1403125 11.21484375 22.953125 C10.85581382 25.44570061 11.1975683 26.9215646 11.875 29.3125 C11.4375 32.0625 11.4375 32.0625 10.875 34.3125 C11.865 34.3125 12.855 34.3125 13.875 34.3125 C14.535 34.9725 15.195 35.6325 15.875 36.3125 C16.205 36.3125 16.535 36.3125 16.875 36.3125 C16.72992922 37.64591652 16.5838897 38.97922764 16.4375 40.3125 C16.34726562 41.1375 16.25703125 41.9625 16.1640625 42.8125 C15.91280307 44.98555452 15.61816078 47.14667506 15.3125 49.3125 C14.06567648 59.80659799 15.62150767 66.53259282 21.5625 75.375 C24.17133141 79.35226752 24.62236203 82.5965913 24.875 87.3125 C19.23699095 86.1043552 19.23699095 86.1043552 16.875 84.3125 C16.125 80.6875 16.125 80.6875 15.875 77.3125 C14.39 76.8175 14.39 76.8175 12.875 76.3125 C11.09056051 79.88137898 11.12215259 83.43383015 11.875 87.3125 C13.85654114 90.64871404 16.29774182 93.42619159 18.875 96.3125 C19.37902344 97.05371094 19.88304688 97.79492188 20.40234375 98.55859375 C20.88832031 99.13738281 21.37429687 99.71617188 21.875 100.3125 C22.9475 100.395 24.02 100.4775 25.125 100.5625 C30.59950193 101.65740039 32.57451238 105.05408721 35.875 109.3125 C36.865 110.3025 36.865 110.3025 37.875 111.3125 C37.875 112.3025 37.875 113.2925 37.875 114.3125 C38.865 114.8075 38.865 114.8075 39.875 115.3125 C39.875 115.6425 39.875 115.9725 39.875 116.3125 C41.195 116.6425 42.515 116.9725 43.875 117.3125 C44.1875 120.0625 44.1875 120.0625 43.875 123.3125 C41.375 125.6875 41.375 125.6875 38.875 127.3125 C37.885 126.8175 37.885 126.8175 36.875 126.3125 C36.875 126.9725 36.875 127.6325 36.875 128.3125 C33.4375177 128.34151394 30.00006688 128.35930335 26.5625 128.375 C25.58603516 128.38337891 24.60957031 128.39175781 23.60351562 128.40039062 C22.19682617 128.40522461 22.19682617 128.40522461 20.76171875 128.41015625 C19.46560669 128.41801147 19.46560669 128.41801147 18.14331055 128.42602539 C15.875 128.3125 15.875 128.3125 12.875 127.3125 C12.89820312 126.27609375 12.92140625 125.2396875 12.9453125 124.171875 C12.96407667 122.80209056 12.98227618 121.4322983 13 120.0625 C13.01675781 119.38058594 13.03351562 118.69867188 13.05078125 117.99609375 C13.0884902 114.11207177 12.65298806 111.70178973 10.875 108.3125 C10.6796875 105.296875 10.6796875 105.296875 10.75 102.0625 C10.76804687 100.98484375 10.78609375 99.9071875 10.8046875 98.796875 C10.82789063 97.97703125 10.85109375 97.1571875 10.875 96.3125 C10.215 96.3125 9.555 96.3125 8.875 96.3125 C8.875 94.6625 8.875 93.0125 8.875 91.3125 C8.215 90.9825 7.555 90.6525 6.875 90.3125 C6.88023682 89.73806152 6.88547363 89.16362305 6.89086914 88.57177734 C6.91178576 85.94369623 6.92470659 83.31563271 6.9375 80.6875 C6.94587891 79.78386719 6.95425781 78.88023438 6.96289062 77.94921875 C6.97991895 73.28345711 6.84329423 68.90236715 5.875 64.3125 C5.215 64.3125 4.555 64.3125 3.875 64.3125 C3.89820313 63.03632812 3.92140625 61.76015625 3.9453125 60.4453125 C3.96406829 58.7760475 3.98226869 57.1067762 4 55.4375 C4.01675781 54.59574219 4.03351562 53.75398438 4.05078125 52.88671875 C4.06044922 51.67822266 4.06044922 51.67822266 4.0703125 50.4453125 C4.08602295 49.32987061 4.08602295 49.32987061 4.10205078 48.19189453 C4.0415597 46.06759765 4.0415597 46.06759765 1.875 44.3125 C-0.88132926 36.04351223 -2.24125746 26.97317692 -3.125 18.3125 C-3.785 18.3125 -4.445 18.3125 -5.125 18.3125 C-5.24522642 12.54163206 -5.04196124 7.01803659 -4.125 1.3125 C-3.125 0.3125 -3.125 0.3125 0 0 Z M7.875 74.3125 C8.875 76.3125 8.875 76.3125 8.875 76.3125 Z M11.875 100.3125 C11.875 101.9625 11.875 103.6125 11.875 105.3125 C12.205 105.3125 12.535 105.3125 12.875 105.3125 C12.875 103.6625 12.875 102.0125 12.875 100.3125 C12.545 100.3125 12.215 100.3125 11.875 100.3125 Z " fill="#1F3338" transform="translate(5.125,-0.3125)"/>
<path d="M0 0 C2.64 0 5.28 0 8 0 C11.24201565 6.07877934 11.33278764 11.18401613 11 18 C10.01 18.495 10.01 18.495 9 19 C9 22.3 9 25.6 9 29 C8.34 29 7.68 29 7 29 C6.47599609 30.58941406 6.47599609 30.58941406 5.94140625 32.2109375 C5.48185012 33.59898459 5.02221036 34.98700399 4.5625 36.375 C4.33240234 37.07367188 4.10230469 37.77234375 3.86523438 38.4921875 C2.11328125 43.7734375 2.11328125 43.7734375 1 46 C0.67 46 0.34 46 0 46 C-0.04898438 47.27875 -0.09796875 48.5575 -0.1484375 49.875 C-0.22352991 51.58335222 -0.29907487 53.29168459 -0.375 55 C-0.42140625 56.25876953 -0.42140625 56.25876953 -0.46875 57.54296875 C-0.72049702 62.95552978 -1.51558892 67.78645864 -3 73 C-3.78375 72.979375 -4.5675 72.95875 -5.375 72.9375 C-7.98114961 72.81315937 -7.98114961 72.81315937 -10 74 C-10.11662261 69.95857785 -10.1873935 65.91759135 -10.25 61.875 C-10.28351563 60.73289063 -10.31703125 59.59078125 -10.3515625 58.4140625 C-10.428556 51.79262113 -10.04233871 48.4246096 -6 43 C-5.76763959 39.49957891 -5.76763959 39.49957891 -6.3125 35.9375 C-6.8256662 31.60148102 -6.95946508 28.24801333 -6 24 C-6.31421071 21.99690671 -6.6451046 19.99628664 -7 18 C-6.67 17.34 -6.34 16.68 -6 16 C-6.66 16 -7.32 16 -8 16 C-8 15.34 -8 14.68 -8 14 C-10.31 15.65 -12.62 17.3 -15 19 C-15.556875 18.55269531 -16.11375 18.10539062 -16.6875 17.64453125 C-21.61115223 13.74386758 -26.59262999 10.19727328 -32 7 C-31.01 6.67 -30.02 6.34 -29 6 C-28.29875 6.495 -27.5975 6.99 -26.875 7.5 C-21.73527582 10.18159522 -16.32270002 8.44491907 -10.9375 6.9375 C-9.4834375 6.4734375 -9.4834375 6.4734375 -8 6 C-8.33 5.34 -8.66 4.68 -9 4 C-8.071875 4.061875 -7.14375 4.12375 -6.1875 4.1875 C-3.02923963 4.3006649 -3.02923963 4.3006649 -1.125 2.5625 C0.09738412 1.18563848 0.09738412 1.18563848 0 0 Z M7 22 C8 24 8 24 8 24 Z " fill="#17252D" transform="translate(117,0)"/>
<path d="M0 0 C0.33 0 0.66 0 1 0 C2.61693023 9.4994651 3.26349633 18.36774517 3 28 C2.34 28.33 1.68 28.66 1 29 C0.67 30.32 0.34 31.64 0 33 C-7.59 33 -15.18 33 -23 33 C-23 32.34 -23 31.68 -23 31 C-23.99 30.67 -24.98 30.34 -26 30 C-26 29.34 -26 28.68 -26 28 C-26.99 28 -27.98 28 -29 28 C-29.24927434 24.76676521 -29.08734906 22.07102641 -28 19 C-25.65730025 16.8085816 -23.23401003 15.24026993 -20.49609375 13.57421875 C-17.77073082 12.00890591 -17.77073082 12.00890591 -15.3125 9.0625 C-13 7 -13 7 -9.4375 6.75 C-8.303125 6.8325 -7.16875 6.915 -6 7 C-3.71380616 7.03557297 -3.71380616 7.03557297 -2 6 C-0.6954344 3.00384054 -0.6954344 3.00384054 0 0 Z M1 14 C1 15.98 1 17.96 1 20 C1.33 20 1.66 20 2 20 C2 18.02 2 16.04 2 14 C1.67 14 1.34 14 1 14 Z " fill="#15232A" transform="translate(107,95)"/>
<path d="M0 0 C0.11269443 6.1105424 -0.10395632 11.95170514 -1 18 C-3.31 18 -5.62 18 -8 18 C-8.495 13.05 -8.495 13.05 -9 8 C-9.33 11.63 -9.66 15.26 -10 19 C-21.08024924 22.20392749 -21.08024924 22.20392749 -26 22 C-28.45210463 22 -29.42314481 22.73276633 -31.5 24 C-34.77777778 26 -34.77777778 26 -37 26 C-37.13489391 23.73078464 -37.23193995 21.4592933 -37.3125 19.1875 C-37.37050781 17.92292969 -37.42851563 16.65835938 -37.48828125 15.35546875 C-37 12 -37 12 -34.6328125 10.1484375 C-33.32957031 9.57996094 -33.32957031 9.57996094 -32 9 C-31.195625 8.484375 -30.39125 7.96875 -29.5625 7.4375 C-26.77883202 5.87593016 -24.02281609 5.00760536 -21 4 C-20.236875 3.46375 -19.47375 2.9275 -18.6875 2.375 C-15.28836092 0.63590559 -12.74320084 0.80286382 -8.98828125 0.9921875 C-5.89562171 1.0043394 -3.2985309 -0.08680344 0 0 Z " fill="#19252C" transform="translate(64,26)"/>
<path d="M0 0 C1.7074998 1.28062485 3.37373596 2.61767557 5 4 C5 4.66 5 5.32 5 6 C6.96550078 6.99148595 8.9323183 7.96862529 10.9296875 8.89453125 C11.57164063 9.19746094 12.21359375 9.50039062 12.875 9.8125 C13.51179688 10.10769531 14.14859375 10.40289062 14.8046875 10.70703125 C17.98588607 12.58065532 20.42727225 14.31825837 23 17 C23.7081172 19.8147839 23.57571122 22.43306589 23.375 25.3125 C23.34792969 26.05306641 23.32085937 26.79363281 23.29296875 27.55664062 C23.22268284 29.37235998 23.11507089 31.18656801 23 33 C19.5625177 33.02901394 16.12506688 33.04680335 12.6875 33.0625 C11.71103516 33.07087891 10.73457031 33.07925781 9.72851562 33.08789062 C8.79072266 33.09111328 7.85292969 33.09433594 6.88671875 33.09765625 C6.02264404 33.10289307 5.15856934 33.10812988 4.26831055 33.11352539 C2 33 2 33 -1 32 C-0.97679687 30.96359375 -0.95359375 29.9271875 -0.9296875 28.859375 C-0.91092333 27.48959056 -0.89272382 26.1197983 -0.875 24.75 C-0.85824219 24.06808594 -0.84148438 23.38617188 -0.82421875 22.68359375 C-0.78700435 18.85051089 -1.09835149 16.31136479 -3 13 C-3.43188796 7.55821167 -3.37772476 4.50363302 0 0 Z M-2 5 C-2 6.65 -2 8.3 -2 10 C-1.67 10 -1.34 10 -1 10 C-1 8.35 -1 6.7 -1 5 C-1.33 5 -1.66 5 -2 5 Z " fill="#16242B" transform="translate(19,95)"/>
<path d="M0 0 C12.35656657 -0.21226004 23.70966863 3.13977908 34 10 C35.19015105 15.30158193 35.11026375 20.59707606 35 26 C33.18408626 25.21619539 31.37234593 24.42271553 29.5625 23.625 C28.55316406 23.18414062 27.54382813 22.74328125 26.50390625 22.2890625 C24 21 24 21 23 19 C22.56263499 16.0086393 22.30092551 13.00925515 22 10 C21.67 12.97 21.34 15.94 21 19 C19.02 19 17.04 19 15 19 C14.67 17.68 14.34 16.36 14 15 C13.67 16.65 13.34 18.3 13 20 C11.18706911 19.85962479 9.3746557 19.71255111 7.5625 19.5625 C6.04849609 19.44068359 6.04849609 19.44068359 4.50390625 19.31640625 C2 19 2 19 1 18 C0.84417697 16.65984779 0.74955858 15.31241097 0.68359375 13.96484375 C0.64169922 13.15595703 0.59980469 12.34707031 0.55664062 11.51367188 C0.51732422 10.66353516 0.47800781 9.81339844 0.4375 8.9375 C0.39431641 8.08349609 0.35113281 7.22949219 0.30664062 6.34960938 C0.20023298 4.23327963 0.09958269 2.11666187 0 0 Z " fill="#18252D" transform="translate(66,26)"/>
<path d="M0 0 C2.58926331 2.58926331 2.37398043 4.02705279 2.625 7.625 C2.69976562 8.62789062 2.77453125 9.63078125 2.8515625 10.6640625 C2.92503906 11.82035156 2.92503906 11.82035156 3 13 C3.8971875 13.20302734 3.8971875 13.20302734 4.8125 13.41015625 C7.76792016 14.20706419 10.29004954 15.58856747 13 17 C14.32 17.66 15.64 18.32 17 19 C17 24.61 17 30.22 17 36 C17.66 36 18.32 36 19 36 C19.33 35.34 19.66 34.68 20 34 C20 35.98 20 37.96 20 40 C20.33 39.34 20.66 38.68 21 38 C22.65 38.33 24.3 38.66 26 39 C27.04662376 43.75738071 26.81907264 47.57842837 26.0625 52.375 C25.27347547 57.63925287 24.78266222 62.67522436 25 68 C23.0625 67.6875 23.0625 67.6875 21 67 C20.67 66.01 20.34 65.02 20 64 C19.34 64.99 18.68 65.98 18 67 C15.36034793 68.61785127 14.15987325 69 11 69 C11 68.34 11 67.68 11 67 C11.86625 66.319375 12.7325 65.63875 13.625 64.9375 C18.61222071 60.85272875 22.61608016 56.32730526 23.375 49.75 C23.375 46.80830775 23.26758935 43.92861674 23 41 C21.68 41 20.36 41 19 41 C19 41.99 19 42.98 19 44 C19.99 44 20.98 44 22 44 C21.42365861 48.75481646 19.44931479 51.97048212 17 56 C16.01 56 15.02 56 14 56 C14 55.34 14 54.68 14 54 C11.03 54.495 11.03 54.495 8 55 C8.44300255 51.45597961 9.18283561 48.48993096 10.625 45.25 C12.5050134 40.40105455 12.36965252 35.99067138 11 31 C9.20653576 27.70611088 9.20653576 27.70611088 6 26 C0.18193439 24.9071037 -3.86972867 26.12204291 -9 29 C-9.66 28.67 -10.32 28.34 -11 28 C-7.63281116 24.25867907 -4.9456616 22.36002531 0.109375 21.7421875 C5.74400412 21.45856523 8.6492124 22.430123 13 26 C13 24.02 13 22.04 13 20 C6.71456473 16.56203749 1.06536889 14.25353319 -6 13 C-6 12.34 -6 11.68 -6 11 C-4.02 11 -2.04 11 0 11 C0 7.37 0 3.74 0 0 Z M25 43 C26 45 26 45 26 45 Z " fill="#2B3238" transform="translate(87,34)"/>
<path d="M0 0 C0 0.33 0 0.66 0 1 C-0.969375 1.02578125 -1.93875 1.0515625 -2.9375 1.078125 C-13.08020579 1.46489065 -22.25171401 3.13603571 -32 6 C-33.11375 6.31839844 -34.2275 6.63679687 -35.375 6.96484375 C-38.24123502 7.76458624 -38.24123502 7.76458624 -39.375 10.625 C-39.684375 11.800625 -39.684375 11.800625 -40 13 C-39.34 13 -38.68 13 -38 13 C-38 13.66 -38 14.32 -38 15 C-35.23735711 15.59732819 -32.83967231 16 -30 16 C-30.66 17.98 -31.32 19.96 -32 22 C-32.9075 22.0825 -33.815 22.165 -34.75 22.25 C-38.46933893 23.10830898 -39.41694335 24.33084147 -42 27 C-43.32 27 -44.64 27 -46 27 C-49.57092971 36.9674009 -51.04511221 46.50879868 -52 57 C-52.66 56.67 -53.32 56.34 -54 56 C-53.03644647 40.25512528 -53.03644647 40.25512528 -52 33 C-52.66 32.67 -53.32 32.34 -54 32 C-54 31.34 -54 30.68 -54 30 C-55.32 30.33 -56.64 30.66 -58 31 C-57.814375 29.7625 -57.62875 28.525 -57.4375 27.25 C-57.01154391 24.05764531 -57.01154391 24.05764531 -57.625 20.9375 C-58.30775618 17.40992641 -56.70182035 15.00654929 -55 12 C-52.625 11.125 -52.625 11.125 -50 11 C-46.42836045 10.62403794 -45.02202397 10.01723615 -42.125 7.75 C-29.52070859 -1.44845097 -14.84835122 -0.62892143 0 0 Z " fill="#294C4F" transform="translate(73,4)"/>
<path d="M0 0 C1.31764999 2.17024704 2.04301147 3.47686053 1.83203125 6.04296875 C1 8 1 8 -0.9609375 8.94140625 C-1.75757812 9.14636719 -2.55421875 9.35132813 -3.375 9.5625 C-6.89751697 10.48615673 -8.46615941 11.44492611 -11 14 C-11.99 14 -12.98 14 -14 14 C-14 18.62 -14 23.24 -14 28 C-12.88625 27.34 -11.7725 26.68 -10.625 26 C-7.25 24 -7.25 24 -5 24 C-4.67 23.34 -4.34 22.68 -4 22 C-3.01 22.99 -2.02 23.98 -1 25 C-2.43671568 25.64757625 -3.87440416 26.29299453 -5.3125 26.9375 C-6.11300781 27.29714844 -6.91351563 27.65679687 -7.73828125 28.02734375 C-10 29 -10 29 -13 30 C-13 32.31 -13 34.62 -13 37 C-12.278125 36.34 -11.55625 35.68 -10.8125 35 C-5.89646413 31.61948138 0.31141418 32.69615862 6 33 C6.33 33.66 6.66 34.32 7 35 C6.34773438 34.95359375 5.69546875 34.9071875 5.0234375 34.859375 C0.55745463 34.67493913 -2.38497126 34.71445094 -6.5 36.625 C-9.50948407 39.48400986 -10.3172366 40.90341958 -11 45 C-11.07956818 51.57005835 -9.49361898 57.00011674 -6.83984375 62.96875 C-6 65 -6 65 -6 67 C-10.875 65.25 -10.875 65.25 -12 63 C-12.0825 61.80375 -12.165 60.6075 -12.25 59.375 C-12.71830469 55.06659685 -14.44228121 52.41157143 -16.86328125 48.89453125 C-18.38192493 46.36345844 -18.64651311 43.89859249 -19 41 C-19.66 40.67 -20.32 40.34 -21 40 C-21.625 37.9375 -21.625 37.9375 -22 36 C-21.67 36 -21.34 36 -21 36 C-20.93006836 35.410979 -20.86013672 34.82195801 -20.78808594 34.21508789 C-20.45670114 31.49554822 -20.10348747 28.77925165 -19.75 26.0625 C-19.64042969 25.13630859 -19.53085937 24.21011719 -19.41796875 23.25585938 C-18.60033215 17.12358484 -17.3569189 11.29687041 -14 6 C-11.5625 5.1875 -11.5625 5.1875 -9 5 C-8.154375 4.29875 -7.30875 3.5975 -6.4375 2.875 C-4 1 -4 1 -1.6875 1.25 C-1.130625 1.4975 -0.57375 1.745 0 2 C0 1.34 0 0.68 0 0 Z " fill="#234246" transform="translate(41,24)"/>
<path d="M0 0 C1.89786929 0.76580691 3.79321244 1.53787577 5.6875 2.3125 C6.74324219 2.74175781 7.79898438 3.17101562 8.88671875 3.61328125 C12 5 12 5 14.6953125 6.640625 C18.05011133 8.6193877 20.13744756 8.44324372 24 8 C26.68180773 7.06982345 29.26638347 6.0203393 31.86328125 4.875 C34 4 34 4 36 4 C35.67 6.64 35.34 9.28 35 12 C35.99 12 36.98 12 38 12 C39.6875 13.375 39.6875 13.375 41 15 C41 15.66 41 16.32 41 17 C27.14 17 13.28 17 -1 17 C-1 16.34 -1 15.68 -1 15 C-0.38125 14.87625 0.2375 14.7525 0.875 14.625 C3.19120832 14.12802644 3.19120832 14.12802644 5 12 C5.64767793 9.42938689 5.64767793 9.42938689 6 7 C2.95086772 5.98888907 2.95086772 5.98888907 0 7 C0 4.66666667 0 2.33333333 0 0 Z " fill="#A87769" transform="translate(43,111)"/>
<path d="M0 0 C2.71984821 2.71984821 3.61204531 3.98607731 5 7.375 C6.09742472 9.98611398 7.12346734 12.18748744 8.6875 14.5625 C10.54704713 18.01594468 10.6697945 21.10357505 11 25 C5.36199095 23.7918552 5.36199095 23.7918552 3 22 C2.25 18.375 2.25 18.375 2 15 C1.01 14.67 0.02 14.34 -1 14 C-2.78443949 17.56887898 -2.75284741 21.12133015 -2 25 C-0.01845886 28.33621404 2.42274182 31.11369159 5 34 C5.50402344 34.74121094 6.00804687 35.48242188 6.52734375 36.24609375 C7.01332031 36.82488281 7.49929687 37.40367188 8 38 C9.0725 38.0825 10.145 38.165 11.25 38.25 C16.72450193 39.34490039 18.69951238 42.74158721 22 47 C22.66 47.66 23.32 48.32 24 49 C24 49.99 24 50.98 24 52 C24.66 52.33 25.32 52.66 26 53 C26 53.33 26 53.66 26 54 C27.32 54.33 28.64 54.66 30 55 C30.3125 57.75 30.3125 57.75 30 61 C27.5 63.375 27.5 63.375 25 65 C24.34 64.67 23.68 64.34 23 64 C23 59.38 23 54.76 23 50 C21.68 49.34 20.36 48.68 19 48 C18 47 17 46 16 45 C14.13260254 43.97812117 14.13260254 43.97812117 12.125 43.125 C8.3418046 41.32017284 5.85432341 39.0989797 3 36 C0.18490007 33.7226499 0.18490007 33.7226499 -3 34 C-3.66 34 -4.32 34 -5 34 C-5 32.35 -5 30.7 -5 29 C-5.66 28.67 -6.32 28.34 -7 28 C-7 22.72 -7 17.44 -7 12 C-4.36 11.67 -1.72 11.34 1 11 C0.67 7.37 0.34 3.74 0 0 Z " fill="#1E2E35" transform="translate(19,62)"/>
<path d="M0 0 C3.81677111 2.0301974 4.76864131 3.39406058 6.3125 7.4375 C6.88976167 10.42876503 7.18340404 12.97383335 7 16 C5.29829124 13.44743686 4.5263428 11.77407883 3.625 8.9375 C2.4787559 5.67660691 2.4787559 5.67660691 -0.1875 3.5 C-0.785625 3.335 -1.38375 3.17 -2 3 C-1.01 4.485 -1.01 4.485 0 6 C0.67176348 9.71237715 0.90936035 13.45848208 -1.05078125 16.78125 C-2.31078826 18.23824925 -3.65404838 19.62200192 -5 21 C-6.27852287 23.21587348 -6.27852287 23.21587348 -7 25 C-7.66 25 -8.32 25 -9 25 C-9 23.35 -9 21.7 -9 20 C-10.98 20 -12.96 20 -15 20 C-16.09321611 15.49048355 -17.13999677 10.27999354 -15 6 C-15.99 5.34 -16.98 4.68 -18 4 C-12.07806491 0.86403437 -6.76524678 -1.27423095 0 0 Z " fill="#F3E999" transform="translate(93,59)"/>
<path d="M0 0 C2.4375 0.625 2.4375 0.625 5 2 C6.59326635 7.22815541 5.47324148 11.45078977 4.125 16.5625 C3.75202547 18.04282306 3.37961503 19.52328839 3.0078125 21.00390625 C2.83040527 21.69613281 2.65299805 22.38835938 2.47021484 23.1015625 C1.90411937 25.38710685 1.45283272 27.68971457 1 30 C-0.36533457 34.48609931 -2.11439742 38.7145396 -4 43 C-4.99 42.34 -5.98 41.68 -7 41 C-6.57815335 38.13144276 -6.06041588 36.10113092 -4.5625 33.59375 C-2.30783507 28.40802066 -1.91483983 23.21392371 -1.3125 17.625 C-1.18294922 16.50738281 -1.05339844 15.38976562 -0.91992188 14.23828125 C-0.60317854 11.49317235 -0.29687816 8.74731618 0 6 C-1.32 5.67 -2.64 5.34 -4 5 C-2.68 3.35 -1.36 1.7 0 0 Z M-4 5 C-5.4450628 8.60875142 -7.17300076 10.07731739 -10.4375 12.125 C-11.21996094 12.62257813 -12.00242187 13.12015625 -12.80859375 13.6328125 C-13.89333984 14.30957031 -13.89333984 14.30957031 -15 15 C-15.99 15.66 -16.98 16.32 -18 17 C-20.31 15.02 -22.62 13.04 -25 11 C-22.02236614 8.02236614 -18.48307092 7.46033078 -14.5 6.3125 C-13.71496094 6.07466797 -12.92992188 5.83683594 -12.12109375 5.59179688 C-6.25027902 3.87486049 -6.25027902 3.87486049 -4 5 Z " fill="#21393E" transform="translate(120,2)"/>
<path d="M0 0 C1.57394531 -0.05607422 1.57394531 -0.05607422 3.1796875 -0.11328125 C6.76396444 0.40487019 7.87527959 1.55740761 10.125 4.3125 C9.795 4.9725 9.465 5.6325 9.125 6.3125 C8.465 5.9825 7.805 5.6525 7.125 5.3125 C7.455 6.6325 7.785 7.9525 8.125 9.3125 C5.65 8.8175 5.65 8.8175 3.125 8.3125 C2.795 6.6625 2.465 5.0125 2.125 3.3125 C1.135 3.3125 0.145 3.3125 -0.875 3.3125 C-0.99875 4.09625 -1.1225 4.88 -1.25 5.6875 C-1.875 8.3125 -1.875 8.3125 -3.875 10.3125 C-4.865 10.3125 -5.855 10.3125 -6.875 10.3125 C-6.545 8.3325 -6.215 6.3525 -5.875 4.3125 C-7.81574861 4.58867533 -7.81574861 4.58867533 -9.875 5.3125 C-12.02415785 8.53623677 -12.25786803 9.57953674 -11.875 13.3125 C-11.215 13.9725 -10.555 14.6325 -9.875 15.3125 C-9.875 16.3025 -9.875 17.2925 -9.875 18.3125 C-8.885 18.3125 -7.895 18.3125 -6.875 18.3125 C-6.875 16.9925 -6.875 15.6725 -6.875 14.3125 C-5.225 14.3125 -3.575 14.3125 -1.875 14.3125 C-1.545 15.9625 -1.215 17.6125 -0.875 19.3125 C0.115 19.3125 1.105 19.3125 2.125 19.3125 C2.455 17.6625 2.785 16.0125 3.125 14.3125 C4.775 13.9825 6.425 13.6525 8.125 13.3125 C7.795 15.6225 7.465 17.9325 7.125 20.3125 C3.45112505 21.16548376 0.0802607 21.42039471 -3.6875 21.375 C-4.66332031 21.36597656 -5.63914062 21.35695313 -6.64453125 21.34765625 C-7.74861328 21.33025391 -7.74861328 21.33025391 -8.875 21.3125 C-9.205 21.9725 -9.535 22.6325 -9.875 23.3125 C-8.555 23.6425 -7.235 23.9725 -5.875 24.3125 C-6.535 26.6225 -7.195 28.9325 -7.875 31.3125 C-8.535 31.3125 -9.195 31.3125 -9.875 31.3125 C-13.39335159 23.62121979 -15.82261687 16.42963109 -14.25 7.9375 C-11.06166063 1.8506703 -6.4799692 0.15051273 0 0 Z " fill="#EBCBB9" transform="translate(43.875,57.6875)"/>
<path d="M0 0 C3.81936528 1.55603771 6.26044438 3.95604931 9 7 C9 7.66 9 8.32 9 9 C8.34 9 7.68 9 7 9 C7.020625 10.093125 7.04125 11.18625 7.0625 12.3125 C7 16 7 16 6 19 C6.17144531 19.61488281 6.34289063 20.22976562 6.51953125 20.86328125 C7.15263937 23.67881088 6.54081472 25.44961344 5.6875 28.1875 C5.42324219 29.06792969 5.15898437 29.94835937 4.88671875 30.85546875 C4 33 4 33 2 34 C-2.48293356 27.17814458 -2.18238507 20.73553395 -2.1875 12.8125 C-2.20586914 11.2975293 -2.20586914 11.2975293 -2.22460938 9.75195312 C-2.22654297 8.78837891 -2.22847656 7.82480469 -2.23046875 6.83203125 C-2.23457764 5.95264893 -2.23868652 5.0732666 -2.24291992 4.16723633 C-2 2 -2 2 0 0 Z " fill="#16272F" transform="translate(10,6)"/>
<path d="M0 0 C0.33 0 0.66 0 1 0 C1.495 5.445 1.495 5.445 2 11 C3.36125 11.103125 4.7225 11.20625 6.125 11.3125 C10.3186217 11.77918831 13.33299713 12.83313467 17 15 C17.94875 15.495 18.8975 15.99 19.875 16.5 C20.926875 17.2425 20.926875 17.2425 22 18 C22 18.99 22 19.98 22 21 C21.44957031 20.72414063 20.89914063 20.44828125 20.33203125 20.1640625 C19.56246094 19.77992187 18.79289062 19.39578125 18 19 C17.15824219 18.57460938 16.31648438 18.14921875 15.44921875 17.7109375 C8.03168192 13.97292295 8.03168192 13.97292295 0 14 C-1.8624438 16.40858714 -1.8624438 16.40858714 -3 19 C-3.66 19 -4.32 19 -5 19 C-5.33 17.35 -5.66 15.7 -6 14 C-4.35 13.34 -2.7 12.68 -1 12 C-2.95824694 11.83232136 -4.91660055 11.66588795 -6.875 11.5 C-7.96554688 11.4071875 -9.05609375 11.314375 -10.1796875 11.21875 C-13.59936241 10.95351206 -16.71638669 11.15039863 -20.125 11.5 C-21.03507812 11.5928125 -21.94515625 11.685625 -22.8828125 11.78125 C-23.93082031 11.88953125 -23.93082031 11.88953125 -25 12 C-24.01 12.66 -23.02 13.32 -22 14 C-22 14.66 -22 15.32 -22 16 C-22.66 16 -23.32 16 -24 16 C-24.33 16.99 -24.66 17.98 -25 19 C-25.66 18.34 -26.32 17.68 -27 17 C-27 16.01 -27 15.02 -27 14 C-34.19488385 11.72793141 -40.15890253 15.57945126 -46.5 18.75 C-49 20 -49 20 -51 20 C-51 19.34 -51 18.68 -51 18 C-41.36328401 9.73995773 -27.14322084 8.74701623 -15 9 C-15 6.36 -15 3.72 -15 1 C-14.34 1 -13.68 1 -13 1 C-12.34 3.31 -11.68 5.62 -11 8 C-7.37 8.66 -3.74 9.32 0 10 C0 6.7 0 3.4 0 0 Z " fill="#A67E73" transform="translate(79,36)"/>
<path d="M0 0 C2.64 0 5.28 0 8 0 C11.24201565 6.07877934 11.33278764 11.18401613 11 18 C10.01 18.495 10.01 18.495 9 19 C9 22.3 9 25.6 9 29 C8.34 29 7.68 29 7 29 C6.47599609 30.58941406 6.47599609 30.58941406 5.94140625 32.2109375 C5.48185012 33.59898459 5.02221036 34.98700399 4.5625 36.375 C4.33240234 37.07367188 4.10230469 37.77234375 3.86523438 38.4921875 C2.11328125 43.7734375 2.11328125 43.7734375 1 46 C0.67 46 0.34 46 0 46 C-0.04898438 47.27875 -0.09796875 48.5575 -0.1484375 49.875 C-0.22352991 51.58335222 -0.29907487 53.29168459 -0.375 55 C-0.42140625 56.25876953 -0.42140625 56.25876953 -0.46875 57.54296875 C-0.72049702 62.95552978 -1.51558892 67.78645864 -3 73 C-3.66 72.67 -4.32 72.34 -5 72 C-4.7834375 70.96166016 -4.7834375 70.96166016 -4.5625 69.90234375 C-2.96512166 61.48282875 -2.79010947 53.53554807 -3 45 C-2.34 45 -1.68 45 -1 45 C-0.87625 44.236875 -0.7525 43.47375 -0.625 42.6875 C0 40 0 40 2 37 C3.96027212 31.11918365 4.96321017 25.10110939 6 19 C6.28230469 17.38158203 6.28230469 17.38158203 6.5703125 15.73046875 C7.62371415 9.89704335 7.62371415 9.89704335 8 4 C5.75124253 3.13149826 5.75124253 3.13149826 3 3 C2.30132812 3.59683594 1.60265625 4.19367187 0.8828125 4.80859375 C-2.85260641 7.64811951 -6.44993586 8.62192176 -10.9375 9.8125 C-11.72318359 10.04130859 -12.50886719 10.27011719 -13.31835938 10.50585938 C-17.87454203 11.75261396 -21.34222688 12.3484838 -26 11 C-29.375 8.9375 -29.375 8.9375 -32 7 C-31.01 6.67 -30.02 6.34 -29 6 C-28.29875 6.495 -27.5975 6.99 -26.875 7.5 C-21.73527582 10.18159522 -16.32270002 8.44491907 -10.9375 6.9375 C-9.4834375 6.4734375 -9.4834375 6.4734375 -8 6 C-8.33 5.34 -8.66 4.68 -9 4 C-8.071875 4.061875 -7.14375 4.12375 -6.1875 4.1875 C-3.02923963 4.3006649 -3.02923963 4.3006649 -1.125 2.5625 C0.09738412 1.18563848 0.09738412 1.18563848 0 0 Z M7 22 C8 24 8 24 8 24 Z " fill="#302A2A" transform="translate(117,0)"/>
<path d="M0 0 C2.58926331 2.58926331 2.37398043 4.02705279 2.625 7.625 C2.69976562 8.62789062 2.77453125 9.63078125 2.8515625 10.6640625 C2.92503906 11.82035156 2.92503906 11.82035156 3 13 C3.8971875 13.20302734 3.8971875 13.20302734 4.8125 13.41015625 C7.76792016 14.20706419 10.29004954 15.58856747 13 17 C14.33238027 17.66856939 15.66551824 18.33563516 17 19 C17.117292 22.18718443 17.18760766 25.37380568 17.25 28.5625 C17.30027344 29.90538086 17.30027344 29.90538086 17.3515625 31.27539062 C17.44173183 37.42944732 16.53023862 40.9339686 13 46 C12.34 46 11.68 46 11 46 C11.09539062 45.35933594 11.19078125 44.71867187 11.2890625 44.05859375 C11.99472752 38.55276553 12.24432449 34.23675715 10 29 C8.1437671 26.69827121 6.85914965 26.11618976 3.94921875 25.72265625 C-1.20827783 25.50595471 -4.44452848 26.44449159 -9 29 C-9.66 28.67 -10.32 28.34 -11 28 C-7.63281116 24.25867907 -4.9456616 22.36002531 0.109375 21.7421875 C5.74400412 21.45856523 8.6492124 22.430123 13 26 C13 24.02 13 22.04 13 20 C6.71456473 16.56203749 1.06536889 14.25353319 -6 13 C-6 12.34 -6 11.68 -6 11 C-4.02 11 -2.04 11 0 11 C0 7.37 0 3.74 0 0 Z " fill="#424245" transform="translate(87,34)"/>
<path d="M0 0 C-2.99480917 0.8723412 -5.63575911 1.10829766 -8.75 1.0625 C-9.54921875 1.05347656 -10.3484375 1.04445313 -11.171875 1.03515625 C-11.77515625 1.02355469 -12.3784375 1.01195312 -13 1 C-13 0.67 -13 0.34 -13 0 C-28.9215109 -0.70912581 -43.4394647 -1.10554912 -56.1484375 9.83984375 C-59.52163161 11.9534274 -63.17400085 11.47824989 -67 11 C-67.33 11.66 -67.66 12.32 -68 13 C-68 12.01 -68 11.02 -68 10 C-67.34 10 -66.68 10 -66 10 C-66 9.34 -66 8.68 -66 8 C-66.61875 7.773125 -67.2375 7.54625 -67.875 7.3125 C-70.61410209 5.62070165 -71.05024472 4.00755839 -72 1 C-71.18789062 1.15855469 -70.37578125 1.31710938 -69.5390625 1.48046875 C-59.0401279 3.02170308 -48.49137294 3.01621791 -38.578125 -1.02734375 C-27.52054485 -5.19906717 -10.75162407 -4.75334959 0 0 Z " fill="#20393E" transform="translate(85,5)"/>
<path d="M0 0 C0 2.62113708 -0.31292445 4.50935112 -1 7 C2.75151144 5.21092278 2.75151144 5.21092278 4.8125 1.8125 C4.874375 1.214375 4.93625 0.61625 5 0 C5.99 0 6.98 0 8 0 C8.2475 0.804375 8.495 1.60875 8.75 2.4375 C9.72238859 5.171081 9.72238859 5.171081 12.125 5.8125 C12.74375 5.874375 13.3625 5.93625 14 6 C13.01 4.02 12.02 2.04 11 0 C12.98 0.66 14.96 1.32 17 2 C17 2.66 17 3.32 17 4 C16.34 4 15.68 4 15 4 C15 6.31 15 8.62 15 11 C13.35 11 11.7 11 10 11 C9.34 12.65 8.68 14.3 8 16 C7.01 16 6.02 16 5 16 C4.67 14.68 4.34 13.36 4 12 C2.35 11.67 0.7 11.34 -1 11 C-1 12.32 -1 13.64 -1 15 C-1.99 15 -2.98 15 -4 15 C-5.94369088 12.48040071 -6.91295451 10.59481083 -7.375 7.4375 C-6.91616601 4.45507904 -6.12757073 3.12757073 -4 1 C-1.8125 0.25 -1.8125 0.25 0 0 Z " fill="#F5EB98" transform="translate(38,61)"/>
<path d="M0 0 C0.33 0 0.66 0 1 0 C1.04898437 0.92941406 1.09796875 1.85882812 1.1484375 2.81640625 C1.23246304 13.73174554 1.23246304 13.73174554 6 23 C6.37125 22.0409375 6.37125 22.0409375 6.75 21.0625 C8 19 8 19 10 18.125 C10.66 18.08375 11.32 18.0425 12 18 C12.66 18.66 13.32 19.32 14 20 C14.33 20 14.66 20 15 20 C14.38273804 25.67355671 13.72054048 31.33861055 13 37 C12.34 36.01 11.68 35.02 11 34 C10.00612666 32.66209359 9.0073108 31.32781878 8 30 C7.67 31.98 7.34 33.96 7 36 C5 33 5 33 5 29 C4.34 29 3.68 29 3 29 C2.15270806 26.33708249 1.32209568 23.67070002 0.5 21 C0.14228516 19.88431641 0.14228516 19.88431641 -0.22265625 18.74609375 C-1.9630876 13.0275336 -3.30356222 7.25890554 -1 1.5 C-0.67 1.005 -0.34 0.51 0 0 Z " fill="#213B40" transform="translate(7,16)"/>
<path d="M0 0 C1.375 2.125 1.375 2.125 2 4 C2.66 3.67 3.32 3.34 4 3 C4 3.99 4 4.98 4 6 C3.01 6.495 3.01 6.495 2 7 C2.33 7.66 2.66 8.32 3 9 C2.34 9 1.68 9 1 9 C0.67 9.66 0.34 10.32 0 11 C-0.68964844 10.51273438 -1.37929688 10.02546875 -2.08984375 9.5234375 C-5.50487841 7.73570124 -7.7291866 7.59834892 -11.5625 7.625 C-12.67753906 7.61726563 -13.79257812 7.60953125 -14.94140625 7.6015625 C-18.26766007 8.0348676 -19.50471291 8.8611825 -22 11 C-22.66 11 -23.32 11 -24 11 C-24 9.35 -24 7.7 -24 6 C-21.75243216 4.84917315 -19.50218252 3.70423142 -17.25 2.5625 C-16.29867187 2.07426758 -16.29867187 2.07426758 -15.328125 1.57617188 C-9.35092449 -1.44355963 -6.30239306 -2.87717944 0 0 Z " fill="#E7C2AE" transform="translate(52,50)"/>
<path d="M0 0 C0.33 0 0.66 0 1 0 C3.87801477 7.03329449 4.52073997 13.51065305 4.6875 21.0625 C4.72166016 22.11888672 4.75582031 23.17527344 4.79101562 24.26367188 C4.87269295 26.84234157 4.94209943 29.42070562 5 32 C2.03 32.495 2.03 32.495 -1 33 C-1.36639923 30.64717188 -1.71830159 28.29359364 -2.0625 25.9375 C-2.16626953 25.28072266 -2.27003906 24.62394531 -2.37695312 23.94726562 C-3.02885096 19.38398078 -2.83669301 15.51814223 -2 11 C-1.82339844 9.98035156 -1.64679687 8.96070313 -1.46484375 7.91015625 C-1.29082031 6.97042969 -1.11679688 6.03070313 -0.9375 5.0625 C-0.76089844 4.10472656 -0.58429687 3.14695313 -0.40234375 2.16015625 C-0.26957031 1.44730469 -0.13679687 0.73445313 0 0 Z " fill="#18232A" transform="translate(15,41)"/>
<path d="M0 0 C1.32 0.66 2.64 1.32 4 2 C4 4.31 4 6.62 4 9 C5.175625 9.433125 5.175625 9.433125 6.375 9.875 C9 11 9 11 11 13 C11.40047444 15.32275177 11.7397104 17.65739357 12 20 C8.92212753 20.42453413 6.96864715 20.67565984 4 20 C0.48967733 17.24608577 -1.64450233 13.97428172 -2.4375 9.5703125 C-2.54621217 5.42566109 -2.35654915 3.53482373 0 0 Z " fill="#A77E72" transform="translate(18,75)"/>
<path d="M0 0 C0.66 0.33 1.32 0.66 2 1 C2 3.31 2 5.62 2 8 C2.721875 7.34 3.44375 6.68 4.1875 6 C9.10353587 2.61948138 15.31141418 3.69615862 21 4 C21.33 4.66 21.66 5.32 22 6 C21.34773438 5.95359375 20.69546875 5.9071875 20.0234375 5.859375 C15.55745463 5.67493913 12.61502874 5.71445094 8.5 7.625 C5.49051593 10.48400986 4.6827634 11.90341958 4 16 C3.92043182 22.57005835 5.50638102 28.00011674 8.16015625 33.96875 C9 36 9 36 9 38 C4.125 36.25 4.125 36.25 3 34 C2.69439339 31.96262262 2.49219321 29.92416259 2.28125 27.875 C2.08603452 25.91408066 2.08603452 25.91408066 1 24 C1.020625 22.7625 1.04125 21.525 1.0625 20.25 C1.11737197 16.44325681 0.30047632 13.59543452 -1 10 C-1.75 6.3125 -1.75 6.3125 -2 3 C-1.34 2.01 -0.68 1.02 0 0 Z " fill="#343D41" transform="translate(26,53)"/>
<path d="M0 0 C0.99 0 1.98 0 3 0 C2.34 1.98 1.68 3.96 1 6 C0.0925 6.0825 -0.815 6.165 -1.75 6.25 C-5.46933893 7.10830898 -6.41694335 8.33084147 -9 11 C-10.32 11 -11.64 11 -13 11 C-16.57092971 20.9674009 -18.04511221 30.50879868 -19 41 C-19.66 40.67 -20.32 40.34 -21 40 C-20.8705095 31.80678261 -20.14966851 24.33004773 -17.6875 16.5 C-17.38646362 15.53223633 -17.38646362 15.53223633 -17.0793457 14.54492188 C-15.54543547 9.94735135 -13.76725596 5.96038444 -11 2 C-8.45703125 1.1328125 -8.45703125 1.1328125 -5.8125 1.125 C-2.60106738 1.34875383 -2.60106738 1.34875383 0 0 Z " fill="#527E7A" transform="translate(40,20)"/>
<path d="M0 0 C1.32 0 2.64 0 4 0 C5.93290177 3.86580353 5.79717525 7.81482993 5 12 C1.76882301 17.95258092 -2.36194378 23.18210366 -8 27 C-9.32 27 -10.64 27 -12 27 C-10.92535286 24.1893844 -9.76532638 21.54870457 -8.375 18.875 C-6.78427225 16.08008076 -6.78427225 16.08008076 -7 13 C-6.34 13 -5.68 13 -5 13 C-5 13.66 -5 14.32 -5 15 C-1.76026817 14.29154463 -1.76026817 14.29154463 -0.4375 11.25 C0.77051334 8.51883941 1.93355431 5.78916564 3 3 C2.01 3 1.02 3 0 3 C0 2.01 0 1.02 0 0 Z " fill="#D3B0A0" transform="translate(106,75)"/>
<path d="M0 0 C3.81677111 2.0301974 4.76864131 3.39406058 6.3125 7.4375 C6.88976167 10.42876503 7.18340404 12.97383335 7 16 C5.29829124 13.44743686 4.5263428 11.77407883 3.625 8.9375 C2.4787559 5.67660691 2.4787559 5.67660691 -0.1875 3.5 C-0.785625 3.335 -1.38375 3.17 -2 3 C-1.01 4.485 -1.01 4.485 0 6 C0 7.32 0 8.64 0 10 C-4.875 9.125 -4.875 9.125 -6 8 C-6.04080783 6.00041636 -6.04254356 3.99954746 -6 2 C-6.66 2 -7.32 2 -8 2 C-8.12375 2.78375 -8.2475 3.5675 -8.375 4.375 C-9 7 -9 7 -11 9 C-12.32 9 -13.64 9 -15 9 C-15 8.01 -15 7.02 -15 6 C-15.99 5.34 -16.98 4.68 -18 4 C-12.07806491 0.86403437 -6.76524678 -1.27423095 0 0 Z " fill="#9D8A8D" transform="translate(93,59)"/>
<path d="M0 0 C2.19888142 2.19888142 2.4256104 3.11354058 3.0625 6.0625 C3.52362496 8.8007513 3.52362496 8.8007513 5 11 C5.52040183 13.49792879 5.99455778 15.98821066 6.4375 18.5 C7.50130268 24.36691425 8.65136598 30.19049963 10 36 C10.66 36 11.32 36 12 36 C12.78952918 42.52190909 13.26883807 49.00084082 13.5625 55.5625 C13.60568359 56.47580078 13.64886719 57.38910156 13.69335938 58.33007812 C13.79811757 60.55327991 13.90029017 62.77656707 14 65 C12.2175082 61.66688525 11.51207144 58.75519057 11 55 C10.34 55 9.68 55 9 55 C9.02320313 53.72382812 9.04640625 52.44765625 9.0703125 51.1328125 C9.08906829 49.4635475 9.10726869 47.7942762 9.125 46.125 C9.14175781 45.28324219 9.15851562 44.44148438 9.17578125 43.57421875 C9.18544922 42.36572266 9.18544922 42.36572266 9.1953125 41.1328125 C9.21102295 40.01737061 9.21102295 40.01737061 9.22705078 38.87939453 C9.1665597 36.75509765 9.1665597 36.75509765 7 35 C4.24367074 26.73101223 2.88374254 17.66067692 2 9 C1.34 9 0.68 9 0 9 C0 6.03 0 3.06 0 0 Z " fill="#362B2A" transform="translate(0,9)"/>
<path d="M0 0 C0.58652344 0.73734375 1.17304688 1.4746875 1.77734375 2.234375 C3.67814039 4.59951387 5.59337241 6.94167146 7.5625 9.25 C8.14128906 9.93578125 8.72007813 10.6215625 9.31640625 11.328125 C10.99882217 13.24632248 10.99882217 13.24632248 14 14 C14 11.36 14 8.72 14 6 C15.52299523 8.93720508 16.80100302 11.9168649 18 15 C18.99 15 19.98 15 21 15 C21 15.66 21 16.32 21 17 C17.85418577 17.02888514 14.70840531 17.04675923 11.5625 17.0625 C10.66466797 17.07087891 9.76683594 17.07925781 8.84179688 17.08789062 C7.56079102 17.09272461 7.56079102 17.09272461 6.25390625 17.09765625 C5.46314697 17.10289307 4.6723877 17.10812988 3.85766602 17.11352539 C2 17 2 17 1 16 C0.76321284 13.30764224 0.57801975 10.63501844 0.4375 7.9375 C0.39431641 7.17888672 0.35113281 6.42027344 0.30664062 5.63867188 C0.20026367 3.75934562 0.09960066 1.87969756 0 0 Z " fill="#1F3B40" transform="translate(21,111)"/>
<path d="M0 0 C2.625 0.375 2.625 0.375 5 1 C8.74903969 12.2917505 8.74903969 12.2917505 8 17 C6.125 20.375 6.125 20.375 4 23 C3.34 23 2.68 23 2 23 C1.87882812 22.154375 1.75765625 21.30875 1.6328125 20.4375 C0.52216262 12.80704975 0.52216262 12.80704975 -1.25 5.3125 C-1.4975 4.219375 -1.745 3.12625 -2 2 C-1.34 1.34 -0.68 0.68 0 0 Z " fill="#203F43" transform="translate(104,26)"/>
<path d="M0 0 C4.07106981 2.86075176 6.13157293 5.37810146 8 10 C8 10.99 8 11.98 8 13 C7.34 13 6.68 13 6 13 C6 13.66 6 14.32 6 15 C2.62382266 14.61415116 1.13745046 14.11683289 -1.5 11.875 C-3.82719488 9.67880239 -3.82719488 9.67880239 -6.5625 10.3125 C-7.7690625 10.6528125 -7.7690625 10.6528125 -9 11 C-11.3125 10.5625 -11.3125 10.5625 -13 10 C-13.33 7.36 -13.66 4.72 -14 2 C-11.08482708 3.07401108 -9.22189824 3.77810176 -7 6 C-4.55987051 6.24287489 -4.55987051 6.24287489 -1.875 6.125 C-0.96492188 6.10695313 -0.05484375 6.08890625 0.8828125 6.0703125 C1.58148438 6.04710937 2.28015625 6.02390625 3 6 C2.505 5.38125 2.01 4.7625 1.5 4.125 C0 2 0 2 0 0 Z " fill="#4E7975" transform="translate(93,16)"/>
<path d="M0 0 C0.99 0 1.98 0 3 0 C1.55922954 3.36179774 -0.24750021 5.59156268 -3 8 C-3.66 8 -4.32 8 -5 8 C-5.2475 8.680625 -5.495 9.36125 -5.75 10.0625 C-7.24197908 13.56865083 -9.06835511 16.71620368 -11 20 C-11.66 19.67 -12.32 19.34 -13 19 C-14.24727112 14.62986209 -14.44947441 10.28755179 -12.875 6 C-11 3 -11 3 -8.625 2.125 C-7.325625 2.063125 -7.325625 2.063125 -6 2 C-2.70041734 1.61688469 -2.70041734 1.61688469 0 0 Z " fill="#34595A" transform="translate(29,13)"/>
<path d="M0 0 C4.01930963 0.61835533 6.7123734 2.69866138 10 5 C11.1230328 5.75294245 12.24795948 6.50306984 13.375 7.25 C14.24125 7.8275 15.1075 8.405 16 9 C16.61875 8.34 17.2375 7.68 17.875 7 C20 5 20 5 22 5 C22 5.66 22 6.32 22 7 C22.66 7 23.32 7 24 7 C24.19658808 8.41543415 24.38187546 9.83244031 24.5625 11.25 C24.66691406 12.03890625 24.77132812 12.8278125 24.87890625 13.640625 C25.00027349 16.00532874 24.69633257 17.7511037 24 20 C23.34 20 22.68 20 22 20 C21.34 19.34 20.68 18.68 20 18 C19.34 18 18.68 18 18 18 C16.9140625 16.56640625 16.9140625 16.56640625 15.625 14.5625 C12.03796776 9.54065486 7.38290188 6.30928442 2.4140625 2.78515625 C1.61742188 2.19605469 0.82078125 1.60695313 0 1 C0 0.67 0 0.34 0 0 Z " fill="#335A5B" transform="translate(87,9)"/>
<path d="M0 0 C3.96 0 7.92 0 12 0 C15.37494969 9.5379013 16.19781425 18.3638034 16.5625 28.4375 C16.60568359 29.55060547 16.64886719 30.66371094 16.69335938 31.81054688 C16.79879888 34.54025844 16.90092029 37.27005143 17 40 C15.515 40.495 15.515 40.495 14 41 C13.90293888 34.88514973 14.22959149 29.06696699 15 23 C14.01 23 13.02 23 12 23 C11.67 17.39 11.34 11.78 11 6 C8.41629764 4.70814882 5.89986704 3.4960976 3.25 2.375 C2.1775 1.92125 1.105 1.4675 0 1 C0 0.67 0 0.34 0 0 Z " fill="#213E43" transform="translate(89,30)"/>
<path d="M0 0 C1.57394531 -0.05607422 1.57394531 -0.05607422 3.1796875 -0.11328125 C6.76396444 0.40487019 7.87527959 1.55740761 10.125 4.3125 C9.795 4.9725 9.465 5.6325 9.125 6.3125 C8.465 5.9825 7.805 5.6525 7.125 5.3125 C7.455 6.6325 7.785 7.9525 8.125 9.3125 C5.65 8.8175 5.65 8.8175 3.125 8.3125 C2.795 6.6625 2.465 5.0125 2.125 3.3125 C1.135 3.3125 0.145 3.3125 -0.875 3.3125 C-0.99875 4.09625 -1.1225 4.88 -1.25 5.6875 C-1.875 8.3125 -1.875 8.3125 -3.875 10.3125 C-4.865 10.3125 -5.855 10.3125 -6.875 10.3125 C-6.545 8.3325 -6.215 6.3525 -5.875 4.3125 C-7.81574861 4.58867533 -7.81574861 4.58867533 -9.875 5.3125 C-11.8201 8.23015 -12.32776317 9.93787285 -12.875 13.3125 C-13.535 12.6525 -14.195 11.9925 -14.875 11.3125 C-13.63392597 6.34820389 -12.11393588 4.17378172 -7.875 1.3125 C-5.18932703 -0.03033649 -2.99753147 0.06962481 0 0 Z " fill="#9F8C8A" transform="translate(43.875,57.6875)"/>
<path d="M0 0 C0.33 0 0.66 0 1 0 C0.8595017 2.7920301 0.71284617 5.58349796 0.5625 8.375 C0.50352539 9.56609375 0.50352539 9.56609375 0.44335938 10.78125 C0.11328125 16.7734375 0.11328125 16.7734375 -1 19 C-4.63 19 -8.26 19 -12 19 C-11.31164062 17.93072266 -11.31164062 17.93072266 -10.609375 16.83984375 C-6.49454838 10.43194664 -6.49454838 10.43194664 -2.625 3.875 C-1 1 -1 1 0 0 Z " fill="#203C41" transform="translate(105,109)"/>
<path d="M0 0 C0.33 0 0.66 0 1 0 C1.33 3.63 1.66 7.26 2 11 C3.36125 11.103125 4.7225 11.20625 6.125 11.3125 C10.3186217 11.77918831 13.33299713 12.83313467 17 15 C17.94875 15.495 18.8975 15.99 19.875 16.5 C20.926875 17.2425 20.926875 17.2425 22 18 C22 18.99 22 19.98 22 21 C21.44957031 20.72414063 20.89914063 20.44828125 20.33203125 20.1640625 C19.56246094 19.77992187 18.79289062 19.39578125 18 19 C17.15824219 18.57460938 16.31648438 18.14921875 15.44921875 17.7109375 C8.03168192 13.97292295 8.03168192 13.97292295 0 14 C-1.8624438 16.40858714 -1.8624438 16.40858714 -3 19 C-3.66 19 -4.32 19 -5 19 C-5.33 17.35 -5.66 15.7 -6 14 C-4.35 13.34 -2.7 12.68 -1 12 C-4.63 11.34 -8.26 10.68 -12 10 C-11.67 9.34 -11.34 8.68 -11 8 C-7.37 8.66 -3.74 9.32 0 10 C0 6.7 0 3.4 0 0 Z " fill="#A27C72" transform="translate(79,36)"/>
<path d="M0 0 C2.26953125 -0.2421875 2.26953125 -0.2421875 5 0 C6.94921875 1.6796875 6.94921875 1.6796875 8.6875 3.875 C9.26886719 4.59429687 9.85023437 5.31359375 10.44921875 6.0546875 C10.96097656 6.69664063 11.47273438 7.33859375 12 8 C12.66 8.66 13.32 9.32 14 10 C14 10.99 14 11.98 14 13 C14.66 13.33 15.32 13.66 16 14 C16 14.33 16 14.66 16 15 C17.32 15.33 18.64 15.66 20 16 C20.3125 18.75 20.3125 18.75 20 22 C17.5 24.375 17.5 24.375 15 26 C14.34 25.67 13.68 25.34 13 25 C13 20.38 13 15.76 13 11 C11.68 10.34 10.36 9.68 9 9 C7.76019922 8.06099477 6.55089178 7.08039751 5.375 6.0625 C4.78460938 5.55847656 4.19421875 5.05445312 3.5859375 4.53515625 C2 3 2 3 0 0 Z " fill="#5A302A" transform="translate(29,101)"/>
<path d="M0 0 C-2.99480917 0.8723412 -5.63575911 1.10829766 -8.75 1.0625 C-9.54921875 1.05347656 -10.3484375 1.04445313 -11.171875 1.03515625 C-11.77515625 1.02355469 -12.3784375 1.01195312 -13 1 C-13 0.67 -13 0.34 -13 0 C-25.03510607 -0.5360298 -35.6049008 -0.78654879 -46.80859375 4.00390625 C-50.59042859 5.1842831 -53.16143495 4.81041765 -57 4 C-57 3.67 -57 3.34 -57 3 C-56.23816406 2.89042969 -55.47632812 2.78085938 -54.69140625 2.66796875 C-48.9520763 1.78664842 -43.57035588 0.74133075 -38.1328125 -1.31640625 C-26.86705033 -4.92722746 -10.82408654 -4.78538563 0 0 Z " fill="#303030" transform="translate(85,5)"/>
<path d="M0 0 C0.66 0 1.32 0 2 0 C2 0.66 2 1.32 2 2 C1.34 2 0.68 2 0 2 C-0.20625 2.53625 -0.4125 3.0725 -0.625 3.625 C-2.53250426 6.91978009 -5.04819384 9.59363628 -8 12 C-8.66 12 -9.32 12 -10 12 C-10 15.63 -10 19.26 -10 23 C-10.99 23 -11.98 23 -13 23 C-13 22.34 -13 21.68 -13 21 C-13.99 21 -14.98 21 -16 21 C-16.24927434 17.76676521 -16.08734906 15.07102641 -15 12 C-12.66367089 9.81454085 -10.24065208 8.24427106 -7.515625 6.57421875 C-5.32794684 5.20522139 -3.74257908 3.93629738 -2 2.0625 C-1.34 1.381875 -0.68 0.70125 0 0 Z " fill="#693C35" transform="translate(94,102)"/>
<path d="M0 0 C2.18503707 3.27755561 2.20127171 3.56979426 1.625 7.1875 C1.02210326 11.51417075 0.92062273 15.63425038 1 20 C-0.9375 19.6875 -0.9375 19.6875 -3 19 C-3.33 18.01 -3.66 17.02 -4 16 C-4.66 16.99 -5.32 17.98 -6 19 C-8.63965207 20.61785127 -9.84012675 21 -13 21 C-13 20.34 -13 19.68 -13 19 C-11.700625 17.9790625 -11.700625 17.9790625 -10.375 16.9375 C-4.95700174 12.60052752 -1.03252139 6.89967236 0 0 Z " fill="#442E2C" transform="translate(111,82)"/>
<path d="M0 0 C0.66 0.66 1.32 1.32 2 2 C1.69046331 9.11934385 -0.82664142 16.65328284 -4 23 C-4.33 23 -4.66 23 -5 23 C-5.04898438 24.27875 -5.09796875 25.5575 -5.1484375 26.875 C-5.22352991 28.58335222 -5.29907487 30.29168459 -5.375 32 C-5.4059375 32.83917969 -5.436875 33.67835937 -5.46875 34.54296875 C-5.72049702 39.95552978 -6.51558892 44.78645864 -8 50 C-8.66 49.67 -9.32 49.34 -10 49 C-9.855625 48.30777344 -9.71125 47.61554688 -9.5625 46.90234375 C-7.96512166 38.48282875 -7.79010947 30.53554807 -8 22 C-7.34 22 -6.68 22 -6 22 C-5.87625 21.236875 -5.7525 20.47375 -5.625 19.6875 C-5 17 -5 17 -3 14 C-1.48422093 9.36349933 -0.59235879 4.83759679 0 0 Z " fill="#3D2E2C" transform="translate(122,23)"/>
<path d="M0 0 C2.475 0.495 2.475 0.495 5 1 C5 2.65 5 4.3 5 6 C5.66 6 6.32 6 7 6 C7.144375 5.195625 7.28875 4.39125 7.4375 3.5625 C8 1 8 1 9 0 C10.66617115 -0.04063832 12.33388095 -0.042721 14 0 C13.36567062 3.16451962 12.26817072 5.51687779 10.5625 8.25 C9.91474609 9.30960938 9.91474609 9.30960938 9.25390625 10.390625 C8.84011719 10.92171875 8.42632812 11.4528125 8 12 C7.34 12 6.68 12 6 12 C6 10.35 6 8.7 6 7 C4.02 7 2.04 7 0 7 C0 4.69 0 2.38 0 0 Z " fill="#E2C4A9" transform="translate(78,72)"/>
<path d="M0 0 C3.91211733 1.15585285 6.8745041 2.35534962 10 5 C9.67 6.32 9.34 7.64 9 9 C8.195625 8.34 7.39125 7.68 6.5625 7 C2.53575706 4.32502419 -1.308622 4.27824954 -6 5 C-9.36878771 6.30719263 -9.36878771 6.30719263 -12 8 C-12.99 8.495 -12.99 8.495 -14 9 C-14.66 8.67 -15.32 8.34 -16 8 C-16 7.34 -16 6.68 -16 6 C-12.49668287 2.59972161 -9.84166786 1.45038771 -5 1 C-5 1.66 -5 2.32 -5 3 C-3.68 3 -2.36 3 -1 3 C-0.67 2.01 -0.34 1.02 0 0 Z " fill="#D9B5A3" transform="translate(91,52)"/>
<path d="M0 0 C0.33 0 0.66 0 1 0 C2.32719886 6.96779403 2.08825381 13.92988911 2 21 C1.34 21.33 0.68 21.66 0 22 C-0.65213292 24.02463255 -0.65213292 24.02463255 -1 26 C-1.99 26 -2.98 26 -4 26 C-3.91244571 22.97786746 -3.80548937 19.95847319 -3.6875 16.9375 C-3.66494141 16.08994141 -3.64238281 15.24238281 -3.61914062 14.36914062 C-3.38626894 8.88607086 -2.48225886 4.90462408 0 0 Z M0 7 C0 8.98 0 10.96 0 13 C0.33 13 0.66 13 1 13 C1 11.02 1 9.04 1 7 C0.67 7 0.34 7 0 7 Z " fill="#3C302F" transform="translate(108,102)"/>
<path d="M0 0 C2.40064396 2.2842491 4.38095979 4.73131773 6.375 7.375 C9.87704553 11.91879325 13.19133061 15.7942204 18 19 C18.66 19.99 19.32 20.98 20 22 C14.95353157 20.70904296 12.51111193 18.78830497 9 15 C5.96123694 12.33819054 5.96123694 12.33819054 2 12 C1.34 12 0.68 12 0 12 C0.185625 10.948125 0.37125 9.89625 0.5625 8.8125 C0.95079331 5.42880118 0.88247485 3.23574112 0 0 Z " fill="#482E2D" transform="translate(14,84)"/>
<path d="M0 0 C3.10985966 0.94019013 5.72247656 1.81498437 8.4375 3.625 C11.97762895 5.52458139 13.99206828 5.45250842 18 5 C21.73778605 3.83477925 25.37207518 2.46953917 29 1 C28.71484375 2.890625 28.71484375 2.890625 28 5 C21.31481697 8.40336591 14.67024659 9.20388579 7.36328125 7.3203125 C5.20984328 6.61038789 3.10061147 5.85242204 1 5 C0.67 3.35 0.34 1.7 0 0 Z " fill="#B6887A" transform="translate(49,114)"/>
<path d="M0 0 C0 0.33 0 0.66 0 1 C-0.969375 1.02578125 -1.93875 1.0515625 -2.9375 1.078125 C-16.30655155 1.58306211 -29.66941865 3.32038375 -41 11 C-41.33 10.01 -41.66 9.02 -42 8 C-30.14939944 -1.8322501 -14.42046251 -0.61079764 0 0 Z " fill="#33474A" transform="translate(73,4)"/>
<path d="M0 0 C0.33 0 0.66 0 1 0 C1.495 6.93 1.495 6.93 2 14 C1.67 13.01 1.34 12.02 1 11 C0.34 11 -0.32 11 -1 11 C-1 13.64 -1 16.28 -1 19 C-5.62 19.33 -10.24 19.66 -15 20 C-13.68 19.67 -12.36 19.34 -11 19 C-11.02320313 18.22914062 -11.04640625 17.45828125 -11.0703125 16.6640625 C-11.08835938 15.66117188 -11.10640625 14.65828125 -11.125 13.625 C-11.14820313 12.62726562 -11.17140625 11.62953125 -11.1953125 10.6015625 C-11 8 -11 8 -9 6 C-9 9.96 -9 13.92 -9 18 C-6.69 18 -4.38 18 -2 18 C-1.93941406 16.86820313 -1.87882812 15.73640625 -1.81640625 14.5703125 C-1.73200083 13.08852855 -1.64735283 11.6067584 -1.5625 10.125 C-1.50352539 9.00544922 -1.50352539 9.00544922 -1.44335938 7.86328125 C-1.11328125 2.2265625 -1.11328125 2.2265625 0 0 Z " fill="#735956" transform="translate(65,26)"/>
<path d="M0 0 C1.32 0.33 2.64 0.66 4 1 C3.42365861 5.75481646 1.44931479 8.97048212 -1 13 C-1.99 13 -2.98 13 -4 13 C-4 12.34 -4 11.68 -4 11 C-5.98 11.33 -7.96 11.66 -10 12 C-9.67 10.02 -9.34 8.04 -9 6 C-8.01 5.67 -7.02 5.34 -6 5 C-5.67 6.32 -5.34 7.64 -5 9 C-3.68 9 -2.36 9 -1 9 C-0.67 6.03 -0.34 3.06 0 0 Z " fill="#8E6A63" transform="translate(105,77)"/>
<path d="M0 0 C2.94422416 0.30457491 3.85920226 0.83492679 5.8125 3.125 C7.36286882 6.87852452 7.01035767 9.10290612 6 13 C4.4375 14.9375 4.4375 14.9375 3 16 C2.01 15.67 1.02 15.34 0 15 C0.66 12.69 1.32 10.38 2 8 C1.01 7.67 0.02 7.34 -1 7 C-0.01 7 0.98 7 2 7 C1.34 4.69 0.68 2.38 0 0 Z " fill="#E9DCD5" transform="translate(91,62)"/>
<path d="M0 0 C2.32590854 3.63423209 2.16265833 6.77088331 2 11 C0.23050388 11.50471197 -1.54065223 12.00360685 -3.3125 12.5 C-4.29863281 12.7784375 -5.28476562 13.056875 -6.30078125 13.34375 C-9 14 -9 14 -12 14 C-12 11.69 -12 9.38 -12 7 C-11.01 7.99 -10.02 8.98 -9 10 C-8.236875 9.690625 -7.47375 9.38125 -6.6875 9.0625 C-4.81210323 8.32106407 -2.91315348 7.63771783 -1 7 C-0.67 4.69 -0.34 2.38 0 0 Z " fill="#2C2C32" transform="translate(52,34)"/>
<path d="M0 0 C-1.44077046 3.36179774 -3.24750021 5.59156268 -6 8 C-6.66 8 -7.32 8 -8 8 C-8.2475 8.680625 -8.495 9.36125 -8.75 10.0625 C-10.24197908 13.56865083 -12.06835511 16.71620368 -14 20 C-14.66 19.67 -15.32 19.34 -16 19 C-15.38525641 15.10968234 -13.50495715 12.630072 -11.1875 9.5 C-10.50042969 8.5615625 -9.81335938 7.623125 -9.10546875 6.65625 C-3.82941176 0 -3.82941176 0 0 0 Z " fill="#4B7371" transform="translate(32,13)"/>
<path d="M0 0 C0 3 0 3 -1 5 C-1.06996014 6.70702735 -1.08440154 8.41668003 -1.0625 10.125 C-1.04896484 11.49011719 -1.04896484 11.49011719 -1.03515625 12.8828125 C-1.02355469 13.58148438 -1.01195312 14.28015625 -1 15 C-1.99 15 -2.98 15 -4 15 C-5.94369088 12.48040071 -6.91295451 10.59481083 -7.375 7.4375 C-6.91616601 4.45507904 -6.12757073 3.12757073 -4 1 C-1.8125 0.25 -1.8125 0.25 0 0 Z " fill="#E1D4D0" transform="translate(38,61)"/>
<path d="M0 0 C0.66 0.99 1.32 1.98 2 3 C1.38183594 4.85522461 1.38183594 4.85522461 0.234375 6.96484375 C-2.38007144 12.38597535 -3.08217325 17.62669867 -3.75 23.5625 C-3.87503906 24.57119141 -4.00007813 25.57988281 -4.12890625 26.61914062 C-4.43191726 29.0781915 -4.72199819 31.5380185 -5 34 C-5.66 33.67 -6.32 33.34 -7 33 C-6.81887851 21.53994967 -5.19045042 10.38090085 0 0 Z " fill="#416464" transform="translate(26,27)"/>
<path d="M0 0 C0.99 0.33 1.98 0.66 3 1 C3 1.99 3 2.98 3 4 C2.01 4.495 2.01 4.495 1 5 C0.34786708 7.02463255 0.34786708 7.02463255 0 9 C1.32 9.33 2.64 9.66 4 10 C3.67 12.31 3.34 14.62 3 17 C0.27277688 14.88640208 -1.76994034 13.27537928 -2.40234375 9.76953125 C-2.46389853 5.5769666 -2.3886129 3.58291935 0 0 Z " fill="#BA9789" transform="translate(18,75)"/>
<path d="M0 0 C-0.625 1.9375 -0.625 1.9375 -2 4 C-4.9375 4.625 -4.9375 4.625 -8 5 C-8.99 5.66 -9.98 6.32 -11 7 C-11.99 7 -12.98 7 -14 7 C-13.67 5.02 -13.34 3.04 -13 1 C-11.33524314 0.65725594 -9.66804677 0.32635698 -8 0 C-6.948125 -0.20625 -5.89625 -0.4125 -4.8125 -0.625 C-2 -1 -2 -1 0 0 Z " fill="#517C78" transform="translate(64,18)"/>
<path d="M0 0 C0.33 0 0.66 0 1 0 C1.18175781 0.83402344 1.36351562 1.66804688 1.55078125 2.52734375 C3.03542983 9.17400126 4.71624032 15.58372281 7 22 C2.125 20.25 2.125 20.25 1 18 C0.69439339 15.96262262 0.49219321 13.92416259 0.28125 11.875 C0.08603452 9.91408066 0.08603452 9.91408066 -1 8 C-1.125 4.4375 -1.125 4.4375 -1 1 C-0.67 0.67 -0.34 0.34 0 0 Z " fill="#4C4E51" transform="translate(28,69)"/>
<path d="M0 0 C3.11572033 3.11572033 3.37858695 3.41611193 3.73046875 7.44921875 C3.81103516 8.29677734 3.89160156 9.14433594 3.97460938 10.01757812 C4.04486328 10.89865234 4.11511719 11.77972656 4.1875 12.6875 C4.26935547 13.58017578 4.35121094 14.47285156 4.43554688 15.39257812 C4.63570104 17.59427398 4.82336258 19.79631338 5 22 C3.35 21.67 1.7 21.34 0 21 C0 14.07 0 7.14 0 0 Z " fill="#3B2F2E" transform="translate(18,106)"/>
<path d="M0 0 C0.66 0.66 1.32 1.32 2 2 C1.34 3.98 0.68 5.96 0 8 C0.66 8.33 1.32 8.66 2 9 C-0.97 8.67 -3.94 8.34 -7 8 C-8.125 3.25 -8.125 3.25 -7 1 C-6.34 1 -5.68 1 -5 1 C-5 1.99 -5 2.98 -5 4 C-4.54625 3.525625 -4.0925 3.05125 -3.625 2.5625 C-2 1 -2 1 0 0 Z " fill="#315757" transform="translate(50,17)"/>
<path d="M0 0 C2.91517292 1.07401108 4.77810176 1.77810176 7 4 C8.98821313 4.39764263 10.98944339 4.73775349 13 5 C6.60869565 9.26086957 6.60869565 9.26086957 2.6875 8.625 C2.130625 8.41875 1.57375 8.2125 1 8 C0.67 5.36 0.34 2.72 0 0 Z " fill="#4B7572" transform="translate(79,18)"/>
<path d="M0 0 C0.66 0 1.32 0 2 0 C2.33 2.97 2.66 5.94 3 9 C5.31 9 7.62 9 10 9 C10 9.33 10 9.66 10 10 C3.66666667 10 -2.66666667 10 -9 10 C-9 9.34 -9 8.68 -9 8 C-6.03 8 -3.06 8 0 8 C0 5.36 0 2.72 0 0 Z " fill="#BB9284" transform="translate(64,37)"/>
<path d="M0 0 C0.66 0 1.32 0 2 0 C2.47661072 4.09885218 2.3448928 5.55930365 -0.25 8.875 C-3 11 -3 11 -7 11 C-7.33 11.66 -7.66 12.32 -8 13 C-8 10.69 -8 8.38 -8 6 C-7.21625 6.04125 -6.4325 6.0825 -5.625 6.125 C-2.83883881 6.28728734 -2.83883881 6.28728734 -1 4 C-0.3574765 1.93125966 -0.3574765 1.93125966 0 0 Z " fill="#EADE95" transform="translate(85,61)"/>
<path d="M0 0 C5.80448373 0.8929975 10.73432097 5.18333982 15 9 C16.39355764 10.95851344 17.74282547 12.95127113 19 15 C18.67 15.66 18.34 16.32 18 17 C17.2575 16.030625 16.515 15.06125 15.75 14.0625 C11.91199714 9.52920676 7.20540096 6.25935106 2.4140625 2.8203125 C1.61742188 2.21960938 0.82078125 1.61890625 0 1 C0 0.67 0 0.34 0 0 Z " fill="#486D6C" transform="translate(87,9)"/>
<path d="M0 0 C1.89213369 2.38573379 3.02391783 4.07175348 4 7 C0.75 7.375 0.75 7.375 -3 7 C-5.4375 4 -5.4375 4 -7 1 C-3.535 0.505 -3.535 0.505 0 0 Z " fill="#D3B0A0" transform="translate(30,94)"/>
<path d="M0 0 C0.66 1.32 1.32 2.64 2 4 C2.66 4 3.32 4 4 4 C4.125 10.75 4.125 10.75 3 13 C3.33 13.99 3.66 14.98 4 16 C2.66666667 16 1.33333333 16 0 16 C0 10.72 0 5.44 0 0 Z " fill="#2F2423" transform="translate(12,74)"/>
<path d="M0 0 C1.32 3.63 2.64 7.26 4 11 C3.01 11.495 3.01 11.495 2 12 C1.34 11.67 0.68 11.34 0 11 C-0.40729228 8.67843403 -0.74438677 6.3431213 -1 4 C-1.99 3.67 -2.98 3.34 -4 3 C-4.33 3.66 -4.66 4.32 -5 5 C-5.99 5 -6.98 5 -8 5 C-8 3.68 -8 2.36 -8 1 C-5 0 -5 0 0 0 Z " fill="#423D40" transform="translate(22,73)"/>
<path d="M0 0 C0.66 0 1.32 0 2 0 C1.67 4.29 1.34 8.58 1 13 C-2.63 12.67 -6.26 12.34 -10 12 C-10 11.01 -10 10.02 -10 9 C-9.34 9.33 -8.68 9.66 -8 10 C-7.67 8.68 -7.34 7.36 -7 6 C-7 7.32 -7 8.64 -7 10 C-4.69 10 -2.38 10 0 10 C0 6.7 0 3.4 0 0 Z " fill="#483D40" transform="translate(78,33)"/>
<path d="M0 0 C0.99 0.33 1.98 0.66 3 1 C2.28714844 1.35191406 1.57429688 1.70382813 0.83984375 2.06640625 C-4.86289572 5.0060418 -9.39352823 7.86017126 -13.66015625 12.6796875 C-15 14 -15 14 -17 14 C-17.33 14.66 -17.66 15.32 -18 16 C-18 13 -18 13 -16.3203125 11.28125 C-15.59585938 10.6934375 -14.87140625 10.105625 -14.125 9.5 C-11.51805546 7.36959371 -9.89331428 5.83997143 -8 3 C-7.34 3 -6.68 3 -6 3 C-6 2.34 -6 1.68 -6 1 C-4.7934375 1.0309375 -4.7934375 1.0309375 -3.5625 1.0625 C-1.06645115 1.29633621 -1.06645115 1.29633621 0 0 Z " fill="#272C32" transform="translate(102,101)"/>
<path d="M0 0 C0.33 0.66 0.66 1.32 1 2 C0.04738281 2.19335938 -0.90523437 2.38671875 -1.88671875 2.5859375 C-3.76810547 2.97652344 -3.76810547 2.97652344 -5.6875 3.375 C-7.54955078 3.75785156 -7.54955078 3.75785156 -9.44921875 4.1484375 C-12.47403318 4.87386054 -15.16059255 5.75131221 -18 7 C-12.93288404 -0.13149654 -8.22362828 -0.32249523 0 0 Z " fill="#735655" transform="translate(94,56)"/>
<path d="M0 0 C3 3 3 3 3.1875 6.6875 C3.125625 7.780625 3.06375 8.87375 3 10 C3.66 10 4.32 10 5 10 C4.67 12.31 4.34 14.62 4 17 C3.01 16.67 2.02 16.34 1 16 C0.67 10.72 0.34 5.44 0 0 Z " fill="#2C2A30" transform="translate(66,26)"/>
<path d="M0 0 C0.33 0 0.66 0 1 0 C1.34718988 3.73229119 1.23503152 5.59957594 -0.6875 8.875 C-3 11 -3 11 -5.75 11.3125 C-6.86375 11.1578125 -6.86375 11.1578125 -8 11 C-7.67 8.69 -7.34 6.38 -7 4 C-6.34 4 -5.68 4 -5 4 C-5 4.66 -5 5.32 -5 6 C-4.01 5.67 -3.02 5.34 -2 5 C-0.78130071 2.49552484 -0.78130071 2.49552484 0 0 Z " fill="#AF8477" transform="translate(106,84)"/>
<path d="M0 0 C5.11672973 3.50222763 8.90644332 6.58627581 12 12 C10.02 12.99 10.02 12.99 8 14 C7.68546875 13.37351562 7.3709375 12.74703125 7.046875 12.1015625 C6.61890625 11.28429688 6.1909375 10.46703125 5.75 9.625 C5.33234375 8.81289063 4.9146875 8.00078125 4.484375 7.1640625 C2.85732025 4.79198795 1.64613361 4.02905196 -1 3 C-0.67 2.01 -0.34 1.02 0 0 Z " fill="#2B5152" transform="translate(93,14)"/>
<path d="M0 0 C0.57492188 0.23074219 1.14984375 0.46148437 1.7421875 0.69921875 C0.35429948 1.99941886 -1.04350508 3.28903805 -2.4453125 4.57421875 C-3.22261719 5.29351562 -3.99992187 6.0128125 -4.80078125 6.75390625 C-7.23471026 8.68092795 -9.33317896 9.71221986 -12.2578125 10.69921875 C-10.82540562 7.36924193 -9.07544726 5.29992915 -6.3828125 2.88671875 C-5.36574219 1.94892578 -5.36574219 1.94892578 -4.328125 0.9921875 C-2.2578125 -0.30078125 -2.2578125 -0.30078125 0 0 Z " fill="#DBB8A6" transform="translate(91.2578125,103.30078125)"/>
<path d="M0 0 C0.66 0.33 1.32 0.66 2 1 C1.63223832 7.30267439 0.83374078 12.33251843 -2 18 C-0.35 18 1.3 18 3 18 C2.67 18.66 2.34 19.32 2 20 C0.35 19.67 -1.3 19.34 -3 19 C-3.33 16.36 -3.66 13.72 -4 11 C-2.68 10.67 -1.36 10.34 0 10 C-0.2784375 8.63875 -0.2784375 8.63875 -0.5625 7.25 C-0.95734621 4.31685676 -0.94691572 2.7355343 0 0 Z " fill="#DDB9A6" transform="translate(97,71)"/>
<path d="M0 0 C2.62187494 1.04874998 3.79371361 1.64931313 5.25 4.125 C5.4975 4.74375 5.745 5.3625 6 6 C5.01 5.67 4.02 5.34 3 5 C3.33 6.32 3.66 7.64 4 9 C2.35 8.67 0.7 8.34 -1 8 C-1.625 5.125 -1.625 5.125 -2 2 C-1.34 1.34 -0.68 0.68 0 0 Z " fill="#695361" transform="translate(48,58)"/>
<path d="M0 0 C0.33 0 0.66 0 1 0 C1.33 3.63 1.66 7.26 2 11 C3.65 11 5.3 11 7 11 C7 11.33 7 11.66 7 12 C0.50321562 12.29530838 -5.6221448 11.17293889 -12 10 C-11.67 9.34 -11.34 8.68 -11 8 C-7.37 8.66 -3.74 9.32 0 10 C0 6.7 0 3.4 0 0 Z " fill="#906C65" transform="translate(79,36)"/>
<path d="M0 0 C2.26953125 -0.2421875 2.26953125 -0.2421875 5 0 C6.94921875 1.6796875 6.94921875 1.6796875 8.6875 3.875 C9.26886719 4.59429687 9.85023437 5.31359375 10.44921875 6.0546875 C10.96097656 6.69664063 11.47273438 7.33859375 12 8 C12.66 8.66 13.32 9.32 14 10 C13.67 10.99 13.34 11.98 13 13 C13 12.34 13 11.68 13 11 C12.41476563 10.73058594 11.82953125 10.46117188 11.2265625 10.18359375 C8.99882431 8.99937503 7.278559 7.71029447 5.375 6.0625 C4.78460938 5.55847656 4.19421875 5.05445312 3.5859375 4.53515625 C2 3 2 3 0 0 Z " fill="#554A4C" transform="translate(29,101)"/>
<path d="M0 0 C1.17949219 0.01804688 2.35898437 0.03609375 3.57421875 0.0546875 C4.92966797 0.08949219 4.92966797 0.08949219 6.3125 0.125 C6.6425 0.785 6.9725 1.445 7.3125 2.125 C6.66023438 2.07859375 6.00796875 2.0321875 5.3359375 1.984375 C-0.84754731 1.72900985 -3.86214094 2.26471275 -8.6875 6.125 C-9.3475 6.125 -10.0075 6.125 -10.6875 6.125 C-10.375 4.25 -10.375 4.25 -9.6875 2.125 C-6.05554504 -0.29630331 -4.30400652 -0.08522785 0 0 Z " fill="#5D4242" transform="translate(40.6875,56.875)"/>
<path d="M0 0 C0.66 0.33 1.32 0.66 2 1 C1.67 4.3 1.34 7.6 1 11 C0.01 11 -0.98 11 -2 11 C-2.33 11.66 -2.66 12.32 -3 13 C-3.27429625 7.60550707 -3.36055646 4.48074195 0 0 Z M-2 5 C-2 6.65 -2 8.3 -2 10 C-1.67 10 -1.34 10 -1 10 C-1 8.35 -1 6.7 -1 5 C-1.33 5 -1.66 5 -2 5 Z " fill="#2B2628" transform="translate(19,95)"/>
<path d="M0 0 C1.75 0.1875 1.75 0.1875 4 1 C4.639375 1.804375 5.27875 2.60875 5.9375 3.4375 C8.21990715 6.27321798 9.70835073 6.70066476 13 8 C14.3125 10.125 14.3125 10.125 15 12 C7.81169169 10.16113043 4.3974456 5.70039245 0 0 Z " fill="#3B373B" transform="translate(19,94)"/>
<path d="M0 0 C2.36574234 3.5486135 2.10865265 4.5764525 1.625 8.6875 C1.51414062 9.68136719 1.40328125 10.67523438 1.2890625 11.69921875 C1.19367187 12.45847656 1.09828125 13.21773437 1 14 C-0.98 14 -2.96 14 -5 14 C-5 13.34 -5 12.68 -5 12 C-4.01 11.67 -3.02 11.34 -2 11 C-1.34 7.37 -0.68 3.74 0 0 Z " fill="#2E2E33" transform="translate(62,30)"/>
<path d="M0 0 C2.64 0 5.28 0 8 0 C8 1.98 8 3.96 8 6 C7.67 5.34 7.34 4.68 7 4 C6.1028125 4.2784375 6.1028125 4.2784375 5.1875 4.5625 C3 5 3 5 0 4 C0 2.68 0 1.36 0 0 Z " fill="#3D6664" transform="translate(68,18)"/>
<path d="M0 0 C0.60585937 0.33773438 1.21171875 0.67546875 1.8359375 1.0234375 C7.82304047 4.21041847 13.28930189 6.04336857 20 7 C20 7.33 20 7.66 20 8 C12.45709983 8.4946164 6.941085 6.90617391 0 4 C0 2.68 0 1.36 0 0 Z " fill="#2D2828" transform="translate(8,0)"/>
<path d="M0 0 C0.66 0 1.32 0 2 0 C2 0.66 2 1.32 2 2 C1.34 2 0.68 2 0 2 C-0.20625 2.53625 -0.4125 3.0725 -0.625 3.625 C-2.57996944 7.0017654 -5.18223695 9.30474839 -8 12 C-8.66 11.67 -9.32 11.34 -10 11 C-8.85455923 7.56367769 -7.7288492 6.66528415 -5 4.375 C-4.278125 3.76398438 -3.55625 3.15296875 -2.8125 2.5234375 C-2.214375 2.02070312 -1.61625 1.51796875 -1 1 C-0.67 0.67 -0.34 0.34 0 0 Z " fill="#4A4244" transform="translate(94,102)"/>
<path d="M0 0 C-0.75 4.75 -0.75 4.75 -3 7 C-4.32 7 -5.64 7 -7 7 C-6.22006468 2.47637516 -4.81844319 0 0 0 Z " fill="#6F5966" transform="translate(85,61)"/>
<path d="M0 0 C3.465 1.98 3.465 1.98 7 4 C7 6.97 7 9.94 7 13 C6.34 12.67 5.68 12.34 5 12 C5.33 10.35 5.66 8.7 6 7 C2.95086772 5.98888907 2.95086772 5.98888907 0 7 C0 4.66666667 0 2.33333333 0 0 Z " fill="#905F53" transform="translate(43,111)"/>
<path d="M0 0 C0.33 0.66 0.66 1.32 1 2 C0.38511719 1.94199219 -0.22976562 1.88398437 -0.86328125 1.82421875 C-3.32604553 1.68674387 -5.55860768 1.63075027 -8 2 C-10.00864359 4.3726974 -10.00864359 4.3726974 -11 7 C-11.66 7 -12.32 7 -13 7 C-13.33 5.35 -13.66 3.7 -14 2 C-9.35150485 -0.3992233 -5.08913926 -0.19957409 0 0 Z " fill="#BC9384" transform="translate(87,48)"/>
<path d="M0 0 C1.2065625 0.0309375 1.2065625 0.0309375 2.4375 0.0625 C1.8784112 3.30521506 1.0242822 4.99307424 -1.5625 7.0625 C-2.2225 7.0625 -2.8825 7.0625 -3.5625 7.0625 C-3.60504356 5.06295254 -3.60330783 3.06208364 -3.5625 1.0625 C-2.5625 0.0625 -2.5625 0.0625 0 0 Z " fill="#79626C" transform="translate(89.5625,71.9375)"/>
<path d="M0 0 C0 0.66 0 1.32 0 2 C-4 4 -8 6 -12 8 C-12.33 7.01 -12.66 6.02 -13 5 C-9.08944645 1.69107007 -5.15517315 0 0 0 Z " fill="#3F5D5D" transform="translate(44,7)"/>
<path d="M0 0 C0 2.31 0 4.62 0 7 C-0.639375 7.103125 -1.27875 7.20625 -1.9375 7.3125 C-2.618125 7.539375 -3.29875 7.76625 -4 8 C-4.33 8.99 -4.66 9.98 -5 11 C-4.91291331 9.54054712 -4.80473093 8.08234132 -4.6875 6.625 C-4.62949219 5.81289062 -4.57148437 5.00078125 -4.51171875 4.1640625 C-3.93288652 1.71617658 -2.91559758 0 0 0 Z " fill="#8E5548" transform="translate(83,112)"/>
<path d="M0 0 C1.32 0 2.64 0 4 0 C5.26237731 2.52475462 5.09856404 4.31200466 5.0625 7.125 C5.05347656 8.03507812 5.04445313 8.94515625 5.03515625 9.8828125 C5.02355469 10.58148438 5.01195313 11.28015625 5 12 C3.48046875 10.171875 3.48046875 10.171875 2 8 C2.3125 5.25 2.3125 5.25 3 3 C2.01 3 1.02 3 0 3 C0 2.01 0 1.02 0 0 Z " fill="#BC9D8F" transform="translate(106,75)"/>
<path d="M0 0 C2.475 0.495 2.475 0.495 5 1 C5.92844389 5.33273814 5.92844389 8.66726186 5 13 C3.09610151 10.14415227 2.30537823 8.0688238 1.375 4.8125 C0.98441406 3.46091797 0.98441406 3.46091797 0.5859375 2.08203125 C0.39257812 1.39496094 0.19921875 0.70789063 0 0 Z M4 5 C5 7 5 7 5 7 Z " fill="#352929" transform="translate(108,72)"/>
<path d="M0 0 C-0.50603992 2.16874252 -0.99983813 3.99967627 -2 6 C-4.62581138 7.57548683 -5.87099787 8 -9 8 C-9 6 -9 6 -7.5390625 4.4921875 C-6.59160156 3.69167969 -6.59160156 3.69167969 -5.625 2.875 C-4.99851562 2.33617188 -4.37203125 1.79734375 -3.7265625 1.2421875 C-2 0 -2 0 0 0 Z " fill="#433C40" transform="translate(107,95)"/>
<path d="M0 0 C1.65 0 3.3 0 5 0 C5.66 1.98 6.32 3.96 7 6 C4.625 5.8125 4.625 5.8125 2 5 C0.6875 2.4375 0.6875 2.4375 0 0 Z " fill="#78616F" transform="translate(37,72)"/>
<path d="M0 0 C2.5 1.75 2.5 1.75 5 4 C5 5.32 5 6.64 5 8 C3.35 7.67 1.7 7.34 0 7 C0 4.69 0 2.38 0 0 Z " fill="#6E5B68" transform="translate(88,61)"/>
<path d="M0 0 C0.33 0.66 0.66 1.32 1 2 C2.33038449 2.3449145 3.66457061 2.67516582 5 3 C10.66037736 5.49056604 10.66037736 5.49056604 13 9 C8.1725201 7.58707905 4.2837641 5.57025846 0 3 C0 2.01 0 1.02 0 0 Z " fill="#3A3336" transform="translate(89,45)"/>
<path d="M0 0 C1.8871875 0.061875 1.8871875 0.061875 3.8125 0.125 C2.4375 2.625 2.4375 2.625 0.8125 5.125 C0.1525 5.125 -0.5075 5.125 -1.1875 5.125 C-1.1875 4.465 -1.1875 3.805 -1.1875 3.125 C-4.1575 2.63 -4.1575 2.63 -7.1875 2.125 C-4.09861478 0.06574319 -3.47814073 -0.1140374 0 0 Z " fill="#E4BFAB" transform="translate(58.1875,46.875)"/>
<path d="M0 0 C0.33 0.66 0.66 1.32 1 2 C2.65 1.34 4.3 0.68 6 0 C5.67 1.98 5.34 3.96 5 6 C3.35 6.33 1.7 6.66 0 7 C0 4.69 0 2.38 0 0 Z " fill="#DDD194" transform="translate(36,66)"/>
<path d="M0 0 C2.86724686 0.57344937 3.8614515 0.8614515 6 3 C6 3.99 6 4.98 6 6 C5.34 6 4.68 6 4 6 C3.01 7.485 3.01 7.485 2 9 C1.01 8.34 0.02 7.68 -1 7 C-0.01 7 0.98 7 2 7 C1.34 4.69 0.68 2.38 0 0 Z " fill="#D7C9C1" transform="translate(91,62)"/>
<path d="M0 0 C0 2.64 0 5.28 0 8 C-0.33 8 -0.66 8 -1 8 C-1 6.02 -1 4.04 -1 2 C-4.79547921 2.96776098 -4.79547921 2.96776098 -8 5 C-9.66617115 5.04063832 -11.33388095 5.042721 -13 5 C-8.77614544 1.55834073 -5.49939416 0 0 0 Z " fill="#B19F91" transform="translate(88,59)"/>
<path d="M0 0 C1.2065625 0.0309375 1.2065625 0.0309375 2.4375 0.0625 C2.4375 0.7225 2.4375 1.3825 2.4375 2.0625 C3.4275 2.3925 4.4175 2.7225 5.4375 3.0625 C5.4375 3.7225 5.4375 4.3825 5.4375 5.0625 C4.7775 5.0625 4.1175 5.0625 3.4375 5.0625 C3.1075 6.0525 2.7775 7.0425 2.4375 8.0625 C1.7775 7.4025 1.1175 6.7425 0.4375 6.0625 C0.4375 5.0725 0.4375 4.0825 0.4375 3.0625 C-0.8825 2.4025 -2.2025 1.7425 -3.5625 1.0625 C-2.5625 0.0625 -2.5625 0.0625 0 0 Z " fill="#C19787" transform="translate(51.5625,46.9375)"/>
<path d="M0 0 C4.83256305 0.41421969 6.82679218 2.46413986 10 6 C5.91621717 5.25749403 1.98060777 4.17076699 -2 3 C-1.34 2.01 -0.68 1.02 0 0 Z " fill="#294D4F" transform="translate(86,25)"/>
<path d="M0 0 C1.43861294 0.08746284 2.87597508 0.19565348 4.3125 0.3125 C5.11300781 0.37050781 5.91351563 0.42851563 6.73828125 0.48828125 C9.39066259 1.08838825 10.36503879 1.85708967 12 4 C12 4.66 12 5.32 12 6 C7.76570244 4.68938409 3.92592596 3.05643741 0 1 C0 0.67 0 0.34 0 0 Z " fill="#374E50" transform="translate(76,5)"/>
<path d="M0 0 C2.31 0 4.62 0 7 0 C7.33 1.32 7.66 2.64 8 4 C7.21625 3.79375 6.4325 3.5875 5.625 3.375 C4.75875 3.25125 3.8925 3.1275 3 3 C2.34 3.66 1.68 4.32 1 5 C-1.125 4.625 -1.125 4.625 -3 4 C-2.505 3.525625 -2.01 3.05125 -1.5 2.5625 C0.11542197 1.24076302 0.11542197 1.24076302 0 0 Z " fill="#242427" transform="translate(117,0)"/>
<path d="M0 0 C0.66 0 1.32 0 2 0 C2.12375 0.61875 2.2475 1.2375 2.375 1.875 C2.87197356 4.19120832 2.87197356 4.19120832 5 6 C2.69 6.33 0.38 6.66 -2 7 C-1.125 1.125 -1.125 1.125 0 0 Z " fill="#645150" transform="translate(97,82)"/>
<path d="M0 0 C2.475 0.495 2.475 0.495 5 1 C5 2.65 5 4.3 5 6 C3.68 6 2.36 6 1 6 C0.67 4.02 0.34 2.04 0 0 Z " fill="#80656F" transform="translate(78,72)"/>
<path d="M0 0 C1.32 0.99 2.64 1.98 4 3 C2.56328432 3.64757625 1.12559584 4.29299453 -0.3125 4.9375 C-1.11300781 5.29714844 -1.91351563 5.65679687 -2.73828125 6.02734375 C-5 7 -5 7 -8 8 C-6.74874616 4.24623848 -5.4347596 3.75926711 -2 2 C-1.34 2 -0.68 2 0 2 C0 1.34 0 0.68 0 0 Z " fill="#43393B" transform="translate(36,46)"/>
<path d="M0 0 C0.99 0 1.98 0 3 0 C2.32829194 3.8063457 1.27253436 7.35206816 0 11 C-0.33 11 -0.66 11 -1 11 C-1.02688151 9.35425434 -1.04634123 7.70838587 -1.0625 6.0625 C-1.07410156 5.14597656 -1.08570312 4.22945313 -1.09765625 3.28515625 C-1 1 -1 1 0 0 Z " fill="#222225" transform="translate(2,0)"/>
<path d="M0 0 C0.93134766 0.00322266 1.86269531 0.00644531 2.82226562 0.00976562 C4.26182617 0.02233398 4.26182617 0.02233398 5.73046875 0.03515625 C6.70951172 0.03966797 7.68855469 0.04417969 8.69726562 0.04882812 C11.10422986 0.06056941 13.51106732 0.07699206 15.91796875 0.09765625 C15.91796875 0.42765625 15.91796875 0.75765625 15.91796875 1.09765625 C7.33796875 1.42765625 -1.24203125 1.75765625 -10.08203125 2.09765625 C-10.08203125 1.76765625 -10.08203125 1.43765625 -10.08203125 1.09765625 C-6.65629188 0.32237146 -3.5096388 -0.02153153 0 0 Z " fill="#2B2929" transform="translate(59.08203125,-0.09765625)"/>
<path d="M0 0 C1.32 0 2.64 0 4 0 C3.67 1.65 3.34 3.3 3 5 C1.68 5.33 0.36 5.66 -1 6 C-1.042721 4.33388095 -1.04063832 2.66617115 -1 1 C-0.67 0.67 -0.34 0.34 0 0 Z " fill="#735C6A" transform="translate(48,71)"/>
<path d="M0 0 C0.33 1.32 0.66 2.64 1 4 C2.32 3.67 3.64 3.34 5 3 C5 3.66 5 4.32 5 5 C0.57117061 6.10720735 -3.46057302 6.22325051 -8 6 C-8.66 5.34 -9.32 4.68 -10 4 C-6.67576157 2.89192052 -5.32809422 3.23197826 -2 4 C-1.34 4 -0.68 4 0 4 C0 2.68 0 1.36 0 0 Z " fill="#D2B7A0" transform="translate(46,73)"/>
<path d="M0 0 C1.98 0.66 3.96 1.32 6 2 C6 2.66 6 3.32 6 4 C5.34 4 4.68 4 4 4 C4 6.31 4 8.62 4 11 C2.35 10.67 0.7 10.34 -1 10 C0.32 9.67 1.64 9.34 3 9 C3 8.34 3 7.68 3 7 C2.01 6.67 1.02 6.34 0 6 C0.99 6 1.98 6 3 6 C2.01 4.02 1.02 2.04 0 0 Z " fill="#C2AF9A" transform="translate(49,61)"/>
<path d="M0 0 C0.125 2.375 0.125 2.375 0 5 C-0.66 5.66 -1.32 6.32 -2 7 C-2.99 7 -3.98 7 -5 7 C-4.6875 4.625 -4.6875 4.625 -4 2 C-1 0 -1 0 0 0 Z " fill="#6D586A" transform="translate(42,61)"/>
<path d="M0 0 C0.66 0 1.32 0 2 0 C2 2.97 2 5.94 2 9 C0.68 8.67 -0.64 8.34 -2 8 C-1.125 1.125 -1.125 1.125 0 0 Z " fill="#454F51" transform="translate(102,53)"/>
<path d="M0 0 C0.99 0.33 1.98 0.66 3 1 C3 1.33 3 1.66 3 2 C4.32 2.33 5.64 2.66 7 3 C7 3.66 7 4.32 7 5 C4.69 5.33 2.38 5.66 0 6 C0 4.02 0 2.04 0 0 Z " fill="#6B3A31" transform="translate(42,114)"/>
<path d="M0 0 C1.98 0 3.96 0 6 0 C5.34 2.31 4.68 4.62 4 7 C3.34 7 2.68 7 2 7 C1.34 4.69 0.68 2.38 0 0 Z " fill="#EAC4B0" transform="translate(32,82)"/>
<path d="M0 0 C5.53846154 -0.36923077 5.53846154 -0.36923077 7.875 1.5 C8.24625 1.995 8.6175 2.49 9 3 C8.34 4.32 7.68 5.64 7 7 C4.66666667 4.66666667 2.33333333 2.33333333 0 0 Z " fill="#574344" transform="translate(91,58)"/>
<path d="M0 0 C-0.99 1.485 -0.99 1.485 -2 3 C-8.93 2.505 -8.93 2.505 -16 2 C-16 1.67 -16 1.34 -16 1 C-14.95199219 0.90912109 -14.95199219 0.90912109 -13.8828125 0.81640625 C-12.97273438 0.73261719 -12.06265625 0.64882813 -11.125 0.5625 C-10.22007813 0.48128906 -9.31515625 0.40007813 -8.3828125 0.31640625 C-1.84090909 -0.55227273 -1.84090909 -0.55227273 0 0 Z " fill="#BA998C" transform="translate(51,55)"/>
<path d="M0 0 C0.66 0.33 1.32 0.66 2 1 C2 1.99 2 2.98 2 4 C-1.33333333 7 -1.33333333 7 -4 7 C-4 5.35 -4 3.7 -4 2 C-2.125 0.9375 -2.125 0.9375 0 0 Z " fill="#CBA99A" transform="translate(32,54)"/>
<path d="M0 0 C0.45375 0.495 0.9075 0.99 1.375 1.5 C2.87635519 3.22609337 2.87635519 3.22609337 5 3 C5 3.66 5 4.32 5 5 C5.66 5.33 6.32 5.66 7 6 C4.69 6.33 2.38 6.66 0 7 C0 4.69 0 2.38 0 0 Z " fill="#5A4747" transform="translate(40,41)"/>
<path d="M0 0 C1.32 0.33 2.64 0.66 4 1 C3.01 1 2.02 1 1 1 C1 2.32 1 3.64 1 5 C2.65 5.33 4.3 5.66 6 6 C5.67 6.66 5.34 7.32 5 8 C3.35 8 1.7 8 0 8 C0 5.36 0 2.72 0 0 Z " fill="#2E5254" transform="translate(67,17)"/>
<path d="M0 0 C1.98 0.99 1.98 0.99 4 2 C4 2.66 4 3.32 4 4 C3.34 4 2.68 4 2 4 C2.33 4.66 2.66 5.32 3 6 C3.039992 7.99960012 3.04346799 10.00047242 3 12 C0.97649676 8.96474514 0.67875982 7.80573798 0.375 4.3125 C0.30023437 3.50425781 0.22546875 2.69601563 0.1484375 1.86328125 C0.09945313 1.24839844 0.05046875 0.63351563 0 0 Z " fill="#C8AEA3" transform="translate(29,70)"/>
<path d="M0 0 C0.66 0.66 1.32 1.32 2 2 C1.34 3.98 0.68 5.96 0 8 C0.66 8.33 1.32 8.66 2 9 C0.35 8.67 -1.3 8.34 -3 8 C-2.45276317 4.62537285 -1.9451 2.91765 0 0 Z " fill="#3B6363" transform="translate(50,17)"/>
<path d="M0 0 C0.99 0 1.98 0 3 0 C3 1.32 3 2.64 3 4 C0.36 4 -2.28 4 -5 4 C-5 3.34 -5 2.68 -5 2 C-4.360625 1.855625 -3.72125 1.71125 -3.0625 1.5625 C-1.02454854 1.18992819 -1.02454854 1.18992819 0 0 Z " fill="#75707A" transform="translate(47,124)"/>
<path d="M0 0 C3 0 3 0 4.6875 1.375 C6 3 6 3 6 5 C4.02 5 2.04 5 0 5 C0 3.35 0 1.7 0 0 Z " fill="#7C727E" transform="translate(78,123)"/>
<path d="M0 0 C-4.95 1.485 -4.95 1.485 -10 3 C-9 0 -9 0 -6.6875 -1.3125 C-4 -2 -4 -2 0 0 Z " fill="#ECC5B1" transform="translate(75,117)"/>
<path d="M0 0 C1.32 1.32 2.64 2.64 4 4 C3.67 4.66 3.34 5.32 3 6 C1.35 5.67 -0.3 5.34 -2 5 C-1.34 3.35 -0.68 1.7 0 0 Z " fill="#CA9F8F" transform="translate(63,94)"/>
<path d="M0 0 C2 3 2 3 1.625 6.1875 C1.41875 7.115625 1.2125 8.04375 1 9 C-0.65 9.33 -2.3 9.66 -4 10 C-3.525625 9.278125 -3.05125 8.55625 -2.5625 7.8125 C-1.05847097 5.10524774 -0.43400818 3.03805725 0 0 Z " fill="#5A3531" transform="translate(111,82)"/>
<path d="M0 0 C0.66 0 1.32 0 2 0 C2.66 0.66 3.32 1.32 4 2 C4.33 2 4.66 2 5 2 C5 3.65 5 5.3 5 7 C4.01 7.495 4.01 7.495 3 8 C0 3.375 0 3.375 0 0 Z " fill="#1A3339" transform="translate(17,34)"/>
<path d="M0 0 C1.98 0.99 1.98 0.99 4 2 C3.67 4.31 3.34 6.62 3 9 C2.34 8.67 1.68 8.34 1 8 C0.40644386 5.35139573 0.25790731 2.70802678 0 0 Z " fill="#3E6564" transform="translate(79,18)"/>
<path d="M0 0 C0.66 0.66 1.32 1.32 2 2 C1.625 5.625 1.625 5.625 1 9 C0.01 9.33 -0.98 9.66 -2 10 C-1.34 6.7 -0.68 3.4 0 0 Z " fill="#515355" transform="translate(100,70)"/>
<path d="M0 0 C0.99 0.33 1.98 0.66 3 1 C2.67 3.64 2.34 6.28 2 9 C1.34 9 0.68 9 0 9 C0 6.03 0 3.06 0 0 Z " fill="#393438" transform="translate(99,61)"/>
<path d="M0 0 C2.97 0 5.94 0 9 0 C8 2 8 2 4.9375 3.125 C3.4834375 3.558125 3.4834375 3.558125 2 4 C1.34 2.68 0.68 1.36 0 0 Z " fill="#DAB3A1" transform="translate(70,47)"/>
<path d="M0 0 C0.99 0 1.98 0 3 0 C2.34 1.98 1.68 3.96 1 6 C-0.32 5.34 -1.64 4.68 -3 4 C-1.6875 2 -1.6875 2 0 0 Z " fill="#4C7774" transform="translate(40,20)"/>
<path d="M0 0 C0.33 0.99 0.66 1.98 1 3 C-3.75 7 -3.75 7 -6 7 C-4.60667426 3.63279613 -3.0210714 2.0140476 0 0 Z " fill="#E6C1AD" transform="translate(85,107)"/>
<path d="M0 0 C2.6855594 2.6855594 3.06049974 5.37621328 4 9 C1.525 8.01 1.525 8.01 -1 7 C-0.67 4.69 -0.34 2.38 0 0 Z " fill="#866B64" transform="translate(31,82)"/>
<path d="M0 0 C0.99 0 1.98 0 3 0 C2.67 2.31 2.34 4.62 2 7 C1.01 6.34 0.02 5.68 -1 5 C-0.67 3.35 -0.34 1.7 0 0 Z " fill="#D6B4A3" transform="translate(19,85)"/>
<path d="M0 0 C0.66 0.33 1.32 0.66 2 1 C2.59355614 3.64860427 2.74209269 6.29197322 3 9 C2.34 9 1.68 9 1 9 C1 7.68 1 6.36 1 5 C0.01 5 -0.98 5 -2 5 C-1.34 3.35 -0.68 1.7 0 0 Z " fill="#434E51" transform="translate(26,53)"/>
<path d="M0 0 C0 2 0 2 -1.3125 3.625 C-3 5 -3 5 -6 5 C-6 3.68 -6 2.36 -6 1 C-3 0 -3 0 0 0 Z " fill="#403235" transform="translate(20,73)"/>
<path d="M0 0 C0.66 0.33 1.32 0.66 2 1 C1.360625 1.721875 0.72125 2.44375 0.0625 3.1875 C-1.98673535 5.98191184 -2.61332946 7.61663274 -3 11 C-3.66 10.34 -4.32 9.68 -5 9 C-3.90931332 5.22454612 -3.0916909 2.52956528 0 0 Z " fill="#958386" transform="translate(34,60)"/>
<path d="M0 0 C2.475 0.99 2.475 0.99 5 2 C4.67 2.99 4.34 3.98 4 5 C1.525 4.01 1.525 4.01 -1 3 C-0.67 2.01 -0.34 1.02 0 0 Z " fill="#8E685F" transform="translate(24,85)"/>
<path d="M0 0 C1.76462683 3.08809695 2 4.23312136 2 8 C0.0625 7.625 0.0625 7.625 -2 7 C-2.33 6.34 -2.66 5.68 -3 5 C-2.01 5 -1.02 5 0 5 C0 3.35 0 1.7 0 0 Z " fill="#2F3237" transform="translate(28,79)"/>
<path d="M0 0 C0.66 0.33 1.32 0.66 2 1 C1.67 4.3 1.34 7.6 1 11 C0.67 11 0.34 11 0 11 C-1.28571429 3.57142857 -1.28571429 3.57142857 0 0 Z " fill="#D3B9AF" transform="translate(97,71)"/>
<path d="M0 0 C2.31 0.33 4.62 0.66 7 1 C6.67 1.66 6.34 2.32 6 3 C3.9375 3.625 3.9375 3.625 2 4 C1.34 2.68 0.68 1.36 0 0 Z " fill="#A49297" transform="translate(88,59)"/>
<path d="M0 0 C2.375 -0.1875 2.375 -0.1875 5 0 C5.66 0.99 6.32 1.98 7 3 C6.34 3 5.68 3 5 3 C4.67 3.66 4.34 4.32 4 5 C2.68 3.35 1.36 1.7 0 0 Z " fill="#DFBBAA" transform="translate(48,56)"/>
<path d="M0 0 C2.62187494 1.04874998 3.79371361 1.64931313 5.25 4.125 C5.4975 4.74375 5.745 5.3625 6 6 C3.0280615 4.87548273 0.66559313 3.77706209 -2 2 C-1.34 1.34 -0.68 0.68 0 0 Z " fill="#866B68" transform="translate(48,58)"/>
<path d="M0 0 C0.33 0 0.66 0 1 0 C1 5.94 1 11.88 1 18 C0.67 18 0.34 18 0 18 C0 12.06 0 6.12 0 0 Z " fill="#2B2929" transform="translate(117,46)"/>
<path d="M0 0 C0.99 0.33 1.98 0.66 3 1 C3 1.99 3 2.98 3 4 C1.02 4.99 1.02 4.99 -1 6 C-1.042721 4.33388095 -1.04063832 2.66617115 -1 1 C-0.67 0.67 -0.34 0.34 0 0 Z " fill="#CAAD9E" transform="translate(18,75)"/>
<path d="M0 0 C0.33 0 0.66 0 1 0 C1 3.3 1 6.6 1 10 C0.67 10 0.34 10 0 10 C0 6.7 0 3.4 0 0 Z " fill="#2B2929" transform="translate(114,79)"/>
<path d="M0 0 C2.64 0 5.28 0 8 0 C8 0.33 8 0.66 8 1 C5.36 1 2.72 1 0 1 C0 0.67 0 0.34 0 0 Z " fill="#2B2929" transform="translate(29,6)"/>
<path d="M0 0 C0.598125 0.20625 1.19625 0.4125 1.8125 0.625 C-0.4975 0.955 -2.8075 1.285 -5.1875 1.625 C-2.1875 -0.375 -2.1875 -0.375 0 0 Z " fill="#2B2929" transform="translate(47.1875,2.375)"/>
<path d="M0 0 C0.33 0 0.66 0 1 0 C1 2.31 1 4.62 1 7 C0.67 7 0.34 7 0 7 C0 4.69 0 2.38 0 0 Z " fill="#2B2929" transform="translate(17,112)"/>
<path d="M0 0 C0.33 0 0.66 0 1 0 C1 2.31 1 4.62 1 7 C0.67 7 0.34 7 0 7 C0 4.69 0 2.38 0 0 Z " fill="#2B2929" transform="translate(110,102)"/>
<path d="M0 0 C0.33 0 0.66 0 1 0 C1 2.31 1 4.62 1 7 C0.67 7 0.34 7 0 7 C0 4.69 0 2.38 0 0 Z " fill="#2B2929" transform="translate(2,26)"/>
<path d="M0 0 C0.33 0 0.66 0 1 0 C1 1.98 1 3.96 1 6 C0.67 6 0.34 6 0 6 C0 4.02 0 2.04 0 0 Z " fill="#2B2929" transform="translate(10,64)"/>
<path d="M0 0 C0.33 0 0.66 0 1 0 C1 1.98 1 3.96 1 6 C0.67 6 0.34 6 0 6 C0 4.02 0 2.04 0 0 Z " fill="#2B2929" transform="translate(1,20)"/>
<path d="M0 0 C1.98 0 3.96 0 6 0 C6 0.33 6 0.66 6 1 C4.02 1 2.04 1 0 1 C0 0.67 0 0.34 0 0 Z " fill="#2B2929" transform="translate(93,8)"/>
<path d="M0 0 C1.65 0 3.3 0 5 0 C5 0.33 5 0.66 5 1 C3.35 1 1.7 1 0 1 C0 0.67 0 0.34 0 0 Z " fill="#2B2929" transform="translate(19,4)"/>
<path d="M0 0 C1 4 1 4 1 4 Z " fill="#2B2929" transform="translate(108,124)"/>
<path d="M0 0 C1 4 1 4 1 4 Z " fill="#2B2929" transform="translate(115,69)"/>
<path d="M0 0 C1 4 1 4 1 4 Z " fill="#2B2929" transform="translate(123,32)"/>
<path d="M0 0 C4 1 4 1 4 1 Z " fill="#2B2929" transform="translate(102,6)"/>
<path d="M0 0 C4 1 4 1 4 1 Z " fill="#2B2929" transform="translate(24,5)"/>
<path d="M0 0 C4 1 4 1 4 1 Z " fill="#2B2929" transform="translate(79,2)"/>
<path d="M0 0 C4 1 4 1 4 1 Z " fill="#2B2929" transform="translate(75,1)"/>
<path d="" fill="#2B2929" transform="translate(0,0)"/>
<path d="" fill="#2B2929" transform="translate(0,0)"/>
<path d="" fill="#2B2929" transform="translate(0,0)"/>
<path d="" fill="#2B2929" transform="translate(0,0)"/>
<path d="" fill="#2B2929" transform="translate(0,0)"/>
<path d="" fill="#2B2929" transform="translate(0,0)"/>
<path d="" fill="#2B2929" transform="translate(0,0)"/>
<path d="" fill="#2B2929" transform="translate(0,0)"/>
<path d="M0 0 C3 1 3 1 3 1 Z " fill="#2B2929" transform="translate(99,7)"/>
<path d="M0 0 C3 1 3 1 3 1 Z " fill="#2B2929" transform="translate(85,4)"/>
<path d="M0 0 C3 1 3 1 3 1 Z " fill="#2B2929" transform="translate(39,4)"/>
<path d="M0 0 C3 1 3 1 3 1 Z " fill="#2B2929" transform="translate(13,2)"/>
<path d="" fill="#2B2929" transform="translate(0,0)"/>
<path d="" fill="#2B2929" transform="translate(0,0)"/>
<path d="" fill="#2B2929" transform="translate(0,0)"/>
<path d="" fill="#2B2929" transform="translate(0,0)"/>
<path d="" fill="#2B2929" transform="translate(0,0)"/>
<path d="M0 0 C2 1 2 1 2 1 Z " fill="#2B2929" transform="translate(91,7)"/>
<path d="M0 0 C2 1 2 1 2 1 Z " fill="#2B2929" transform="translate(89,6)"/>
<path d="M0 0 C2 1 2 1 2 1 Z " fill="#2B2929" transform="translate(106,5)"/>
<path d="M0 0 C2 1 2 1 2 1 Z " fill="#2B2929" transform="translate(37,5)"/>
<path d="M0 0 C2 1 2 1 2 1 Z " fill="#2B2929" transform="translate(112,3)"/>
<path d="M0 0 C2 1 2 1 2 1 Z " fill="#2B2929" transform="translate(83,3)"/>
<path d="M0 0 C2 1 2 1 2 1 Z " fill="#2B2929" transform="translate(16,3)"/>
<path d="" fill="#2B2929" transform="translate(0,0)"/>
<path d="M0 0 C2 1 2 1 2 1 Z " fill="#2B2929" transform="translate(114,2)"/>
<path d="M0 0 C2 1 2 1 2 1 Z " fill="#2B2929" transform="translate(10,0)"/>
<path d="" fill="#2B2929" transform="translate(0,0)"/>
<path d="" fill="#2B2929" transform="translate(0,0)"/>
<path d="" fill="#2B2929" transform="translate(0,0)"/>
<path d="" fill="#2B2929" transform="translate(0,0)"/>
<path d="" fill="#2B2929" transform="translate(0,0)"/>
<path d="" fill="#2B2929" transform="translate(0,0)"/>
<path d="" fill="#2B2929" transform="translate(0,0)"/>
<path d="" fill="#2B2929" transform="translate(0,0)"/>
<path d="" fill="#2B2929" transform="translate(0,0)"/>
<path d="" fill="#2B2929" transform="translate(0,0)"/>
<path d="" fill="#2B2929" transform="translate(0,0)"/>
<path d="" fill="#2B2929" transform="translate(0,0)"/>
</svg>
